<?xml version="1.0" encoding="utf-8" standalone="no"?>
<!DOCTYPE svg PUBLIC "-//W3C//DTD SVG 1.1//EN"
  "http://www.w3.org/Graphics/SVG/1.1/DTD/svg11.dtd">
<!-- Created with matplotlib (https://matplotlib.org/) -->
<svg height="465.958125pt" version="1.1" viewBox="0 0 926.925 465.958125" width="926.925pt" xmlns="http://www.w3.org/2000/svg" xmlns:xlink="http://www.w3.org/1999/xlink">
 <defs>
  <style type="text/css">
*{stroke-linecap:butt;stroke-linejoin:round;}
  </style>
 </defs>
 <g id="figure_1">
  <g id="patch_1">
   <path d="M 0 465.958125 
L 926.925 465.958125 
L 926.925 0 
L 0 0 
z
"/>
  </g>
  <g id="axes_1">
   <g id="patch_2">
    <path d="M 26.925 442.08 
L 919.725 442.08 
L 919.725 7.2 
L 26.925 7.2 
z
"/>
   </g>
   <g id="patch_3">
    <path clip-path="url(#p1737687ead)" d="M 72.993077 442.08 
L 89.006354 442.08 
L 89.006354 27.908571 
L 72.993077 27.908571 
z
" style="fill:#8dd3c7;opacity:0.4;"/>
   </g>
   <g id="patch_4">
    <path clip-path="url(#p1737687ead)" d="M 89.006354 442.08 
L 105.019631 442.08 
L 105.019631 394.349724 
L 89.006354 394.349724 
z
" style="fill:#8dd3c7;opacity:0.4;"/>
   </g>
   <g id="patch_5">
    <path clip-path="url(#p1737687ead)" d="M 105.019631 442.08 
L 121.032907 442.08 
L 121.032907 428.465987 
L 105.019631 428.465987 
z
" style="fill:#8dd3c7;opacity:0.4;"/>
   </g>
   <g id="patch_6">
    <path clip-path="url(#p1737687ead)" d="M 121.032907 442.08 
L 137.046184 442.08 
L 137.046184 435.256747 
L 121.032907 435.256747 
z
" style="fill:#8dd3c7;opacity:0.4;"/>
   </g>
   <g id="patch_7">
    <path clip-path="url(#p1737687ead)" d="M 137.046184 442.08 
L 153.059461 442.08 
L 153.059461 436.491431 
L 137.046184 436.491431 
z
" style="fill:#8dd3c7;opacity:0.4;"/>
   </g>
   <g id="patch_8">
    <path clip-path="url(#p1737687ead)" d="M 153.059461 442.08 
L 169.072738 442.08 
L 169.072738 436.751365 
L 153.059461 436.751365 
z
" style="fill:#8dd3c7;opacity:0.4;"/>
   </g>
   <g id="patch_9">
    <path clip-path="url(#p1737687ead)" d="M 169.072738 442.08 
L 185.086015 442.08 
L 185.086015 434.217014 
L 169.072738 434.217014 
z
" style="fill:#8dd3c7;opacity:0.4;"/>
   </g>
   <g id="patch_10">
    <path clip-path="url(#p1737687ead)" d="M 185.086015 442.08 
L 201.099292 442.08 
L 201.099292 433.924589 
L 185.086015 433.924589 
z
" style="fill:#8dd3c7;opacity:0.4;"/>
   </g>
   <g id="patch_11">
    <path clip-path="url(#p1737687ead)" d="M 201.099292 442.08 
L 217.112569 442.08 
L 217.112569 437.401198 
L 201.099292 437.401198 
z
" style="fill:#8dd3c7;opacity:0.4;"/>
   </g>
   <g id="patch_12">
    <path clip-path="url(#p1737687ead)" d="M 217.112569 442.08 
L 233.125846 442.08 
L 233.125846 439.773091 
L 217.112569 439.773091 
z
" style="fill:#8dd3c7;opacity:0.4;"/>
   </g>
   <g id="patch_13">
    <path clip-path="url(#p1737687ead)" d="M 233.125846 442.08 
L 249.139123 442.08 
L 249.139123 441.235216 
L 233.125846 441.235216 
z
" style="fill:#8dd3c7;opacity:0.4;"/>
   </g>
   <g id="patch_14">
    <path clip-path="url(#p1737687ead)" d="M 249.139123 442.08 
L 265.1524 442.08 
L 265.1524 441.592625 
L 249.139123 441.592625 
z
" style="fill:#8dd3c7;opacity:0.4;"/>
   </g>
   <g id="patch_15">
    <path clip-path="url(#p1737687ead)" d="M 265.1524 442.08 
L 281.165677 442.08 
L 281.165677 442.047508 
L 265.1524 442.047508 
z
" style="fill:#8dd3c7;opacity:0.4;"/>
   </g>
   <g id="patch_16">
    <path clip-path="url(#p1737687ead)" d="M 281.165677 442.08 
L 297.178954 442.08 
L 297.178954 442.047508 
L 281.165677 442.047508 
z
" style="fill:#8dd3c7;opacity:0.4;"/>
   </g>
   <g id="patch_17">
    <path clip-path="url(#p1737687ead)" d="M 297.178954 442.08 
L 313.192231 442.08 
L 313.192231 442.08 
L 297.178954 442.08 
z
" style="fill:#8dd3c7;opacity:0.4;"/>
   </g>
   <g id="patch_18">
    <path clip-path="url(#p1737687ead)" d="M 313.192231 442.08 
L 329.205508 442.08 
L 329.205508 442.08 
L 313.192231 442.08 
z
" style="fill:#8dd3c7;opacity:0.4;"/>
   </g>
   <g id="patch_19">
    <path clip-path="url(#p1737687ead)" d="M 329.205508 442.08 
L 345.218785 442.08 
L 345.218785 442.08 
L 329.205508 442.08 
z
" style="fill:#8dd3c7;opacity:0.4;"/>
   </g>
   <g id="patch_20">
    <path clip-path="url(#p1737687ead)" d="M 345.218785 442.08 
L 361.232061 442.08 
L 361.232061 442.08 
L 345.218785 442.08 
z
" style="fill:#8dd3c7;opacity:0.4;"/>
   </g>
   <g id="patch_21">
    <path clip-path="url(#p1737687ead)" d="M 361.232061 442.08 
L 377.245338 442.08 
L 377.245338 442.08 
L 361.232061 442.08 
z
" style="fill:#8dd3c7;opacity:0.4;"/>
   </g>
   <g id="patch_22">
    <path clip-path="url(#p1737687ead)" d="M 377.245338 442.08 
L 393.258615 442.08 
L 393.258615 442.08 
L 377.245338 442.08 
z
" style="fill:#8dd3c7;opacity:0.4;"/>
   </g>
   <g id="patch_23">
    <path clip-path="url(#p1737687ead)" d="M 393.258615 442.08 
L 409.271892 442.08 
L 409.271892 442.015017 
L 393.258615 442.015017 
z
" style="fill:#8dd3c7;opacity:0.4;"/>
   </g>
   <g id="patch_24">
    <path clip-path="url(#p1737687ead)" d="M 409.271892 442.08 
L 425.285169 442.08 
L 425.285169 442.08 
L 409.271892 442.08 
z
" style="fill:#8dd3c7;opacity:0.4;"/>
   </g>
   <g id="patch_25">
    <path clip-path="url(#p1737687ead)" d="M 425.285169 442.08 
L 441.298446 442.08 
L 441.298446 442.047508 
L 425.285169 442.047508 
z
" style="fill:#8dd3c7;opacity:0.4;"/>
   </g>
   <g id="patch_26">
    <path clip-path="url(#p1737687ead)" d="M 441.298446 442.08 
L 457.311723 442.08 
L 457.311723 442.08 
L 441.298446 442.08 
z
" style="fill:#8dd3c7;opacity:0.4;"/>
   </g>
   <g id="patch_27">
    <path clip-path="url(#p1737687ead)" d="M 457.311723 442.08 
L 473.325 442.08 
L 473.325 441.950033 
L 457.311723 441.950033 
z
" style="fill:#8dd3c7;opacity:0.4;"/>
   </g>
   <g id="patch_28">
    <path clip-path="url(#p1737687ead)" d="M 473.325 442.08 
L 489.338277 442.08 
L 489.338277 442.047508 
L 473.325 442.047508 
z
" style="fill:#8dd3c7;opacity:0.4;"/>
   </g>
   <g id="patch_29">
    <path clip-path="url(#p1737687ead)" d="M 489.338277 442.08 
L 505.351554 442.08 
L 505.351554 441.982525 
L 489.338277 441.982525 
z
" style="fill:#8dd3c7;opacity:0.4;"/>
   </g>
   <g id="patch_30">
    <path clip-path="url(#p1737687ead)" d="M 505.351554 442.08 
L 521.364831 442.08 
L 521.364831 441.982525 
L 505.351554 441.982525 
z
" style="fill:#8dd3c7;opacity:0.4;"/>
   </g>
   <g id="patch_31">
    <path clip-path="url(#p1737687ead)" d="M 521.364831 442.08 
L 537.378108 442.08 
L 537.378108 441.917542 
L 521.364831 441.917542 
z
" style="fill:#8dd3c7;opacity:0.4;"/>
   </g>
   <g id="patch_32">
    <path clip-path="url(#p1737687ead)" d="M 537.378108 442.08 
L 553.391385 442.08 
L 553.391385 441.917542 
L 537.378108 441.917542 
z
" style="fill:#8dd3c7;opacity:0.4;"/>
   </g>
   <g id="patch_33">
    <path clip-path="url(#p1737687ead)" d="M 553.391385 442.08 
L 569.404662 442.08 
L 569.404662 441.722592 
L 553.391385 441.722592 
z
" style="fill:#8dd3c7;opacity:0.4;"/>
   </g>
   <g id="patch_34">
    <path clip-path="url(#p1737687ead)" d="M 569.404662 442.08 
L 585.417939 442.08 
L 585.417939 441.6901 
L 569.404662 441.6901 
z
" style="fill:#8dd3c7;opacity:0.4;"/>
   </g>
   <g id="patch_35">
    <path clip-path="url(#p1737687ead)" d="M 585.417939 442.08 
L 601.431215 442.08 
L 601.431215 441.625116 
L 585.417939 441.625116 
z
" style="fill:#8dd3c7;opacity:0.4;"/>
   </g>
   <g id="patch_36">
    <path clip-path="url(#p1737687ead)" d="M 601.431215 442.08 
L 617.444492 442.08 
L 617.444492 441.397675 
L 601.431215 441.397675 
z
" style="fill:#8dd3c7;opacity:0.4;"/>
   </g>
   <g id="patch_37">
    <path clip-path="url(#p1737687ead)" d="M 617.444492 442.08 
L 633.457769 442.08 
L 633.457769 441.332691 
L 617.444492 441.332691 
z
" style="fill:#8dd3c7;opacity:0.4;"/>
   </g>
   <g id="patch_38">
    <path clip-path="url(#p1737687ead)" d="M 633.457769 442.08 
L 649.471046 442.08 
L 649.471046 441.430166 
L 633.457769 441.430166 
z
" style="fill:#8dd3c7;opacity:0.4;"/>
   </g>
   <g id="patch_39">
    <path clip-path="url(#p1737687ead)" d="M 649.471046 442.08 
L 665.484323 442.08 
L 665.484323 441.007775 
L 649.471046 441.007775 
z
" style="fill:#8dd3c7;opacity:0.4;"/>
   </g>
   <g id="patch_40">
    <path clip-path="url(#p1737687ead)" d="M 665.484323 442.08 
L 681.4976 442.08 
L 681.4976 441.202725 
L 665.484323 441.202725 
z
" style="fill:#8dd3c7;opacity:0.4;"/>
   </g>
   <g id="patch_41">
    <path clip-path="url(#p1737687ead)" d="M 681.4976 442.08 
L 697.510877 442.08 
L 697.510877 440.390433 
L 681.4976 440.390433 
z
" style="fill:#8dd3c7;opacity:0.4;"/>
   </g>
   <g id="patch_42">
    <path clip-path="url(#p1737687ead)" d="M 697.510877 442.08 
L 713.524154 442.08 
L 713.524154 440.650366 
L 697.510877 440.650366 
z
" style="fill:#8dd3c7;opacity:0.4;"/>
   </g>
   <g id="patch_43">
    <path clip-path="url(#p1737687ead)" d="M 713.524154 442.08 
L 729.537431 442.08 
L 729.537431 440.325449 
L 713.524154 440.325449 
z
" style="fill:#8dd3c7;opacity:0.4;"/>
   </g>
   <g id="patch_44">
    <path clip-path="url(#p1737687ead)" d="M 729.537431 442.08 
L 745.550708 442.08 
L 745.550708 440.195483 
L 729.537431 440.195483 
z
" style="fill:#8dd3c7;opacity:0.4;"/>
   </g>
   <g id="patch_45">
    <path clip-path="url(#p1737687ead)" d="M 745.550708 442.08 
L 761.563985 442.08 
L 761.563985 440.098008 
L 745.550708 440.098008 
z
" style="fill:#8dd3c7;opacity:0.4;"/>
   </g>
   <g id="patch_46">
    <path clip-path="url(#p1737687ead)" d="M 761.563985 442.08 
L 777.577262 442.08 
L 777.577262 440.422924 
L 761.563985 440.422924 
z
" style="fill:#8dd3c7;opacity:0.4;"/>
   </g>
   <g id="patch_47">
    <path clip-path="url(#p1737687ead)" d="M 777.577262 442.08 
L 793.590539 442.08 
L 793.590539 440.877808 
L 777.577262 440.877808 
z
" style="fill:#8dd3c7;opacity:0.4;"/>
   </g>
   <g id="patch_48">
    <path clip-path="url(#p1737687ead)" d="M 793.590539 442.08 
L 809.603816 442.08 
L 809.603816 441.6901 
L 793.590539 441.6901 
z
" style="fill:#8dd3c7;opacity:0.4;"/>
   </g>
   <g id="patch_49">
    <path clip-path="url(#p1737687ead)" d="M 809.603816 442.08 
L 825.617093 442.08 
L 825.617093 441.755083 
L 809.603816 441.755083 
z
" style="fill:#8dd3c7;opacity:0.4;"/>
   </g>
   <g id="patch_50">
    <path clip-path="url(#p1737687ead)" d="M 825.617093 442.08 
L 841.630369 442.08 
L 841.630369 442.015017 
L 825.617093 442.015017 
z
" style="fill:#8dd3c7;opacity:0.4;"/>
   </g>
   <g id="patch_51">
    <path clip-path="url(#p1737687ead)" d="M 841.630369 442.08 
L 857.643646 442.08 
L 857.643646 442.047508 
L 841.630369 442.047508 
z
" style="fill:#8dd3c7;opacity:0.4;"/>
   </g>
   <g id="patch_52">
    <path clip-path="url(#p1737687ead)" d="M 857.643646 442.08 
L 873.656923 442.08 
L 873.656923 423.527251 
L 857.643646 423.527251 
z
" style="fill:#8dd3c7;opacity:0.4;"/>
   </g>
   <g id="matplotlib.axis_1">
    <g id="xtick_1">
     <g id="line2d_1">
      <path clip-path="url(#p1737687ead)" d="M 72.993077 442.08 
L 72.993077 7.2 
" style="fill:none;stroke:#ffffff;stroke-linecap:square;stroke-width:0.8;"/>
     </g>
     <g id="line2d_2">
      <defs>
       <path d="M 0 0 
L 0 3.5 
" id="md78ff7429d" style="stroke:#ffffff;stroke-width:0.8;"/>
      </defs>
      <g>
       <use style="fill:#ffffff;stroke:#ffffff;stroke-width:0.8;" x="72.993077" xlink:href="#md78ff7429d" y="442.08"/>
      </g>
     </g>
     <g id="text_1">
      <!-- 0.0 -->
      <defs>
       <path d="M 31.78125 66.40625 
Q 24.171875 66.40625 20.328125 58.90625 
Q 16.5 51.421875 16.5 36.375 
Q 16.5 21.390625 20.328125 13.890625 
Q 24.171875 6.390625 31.78125 6.390625 
Q 39.453125 6.390625 43.28125 13.890625 
Q 47.125 21.390625 47.125 36.375 
Q 47.125 51.421875 43.28125 58.90625 
Q 39.453125 66.40625 31.78125 66.40625 
z
M 31.78125 74.21875 
Q 44.046875 74.21875 50.515625 64.515625 
Q 56.984375 54.828125 56.984375 36.375 
Q 56.984375 17.96875 50.515625 8.265625 
Q 44.046875 -1.421875 31.78125 -1.421875 
Q 19.53125 -1.421875 13.0625 8.265625 
Q 6.59375 17.96875 6.59375 36.375 
Q 6.59375 54.828125 13.0625 64.515625 
Q 19.53125 74.21875 31.78125 74.21875 
z
" id="DejaVuSans-48"/>
       <path d="M 10.6875 12.40625 
L 21 12.40625 
L 21 0 
L 10.6875 0 
z
" id="DejaVuSans-46"/>
      </defs>
      <g style="fill:#ffffff;" transform="translate(65.041514 456.678437)scale(0.1 -0.1)">
       <use xlink:href="#DejaVuSans-48"/>
       <use x="63.623047" xlink:href="#DejaVuSans-46"/>
       <use x="95.410156" xlink:href="#DejaVuSans-48"/>
      </g>
     </g>
    </g>
    <g id="xtick_2">
     <g id="line2d_3">
      <path clip-path="url(#p1737687ead)" d="M 233.125846 442.08 
L 233.125846 7.2 
" style="fill:none;stroke:#ffffff;stroke-linecap:square;stroke-width:0.8;"/>
     </g>
     <g id="line2d_4">
      <g>
       <use style="fill:#ffffff;stroke:#ffffff;stroke-width:0.8;" x="233.125846" xlink:href="#md78ff7429d" y="442.08"/>
      </g>
     </g>
     <g id="text_2">
      <!-- 0.2 -->
      <defs>
       <path d="M 19.1875 8.296875 
L 53.609375 8.296875 
L 53.609375 0 
L 7.328125 0 
L 7.328125 8.296875 
Q 12.9375 14.109375 22.625 23.890625 
Q 32.328125 33.6875 34.8125 36.53125 
Q 39.546875 41.84375 41.421875 45.53125 
Q 43.3125 49.21875 43.3125 52.78125 
Q 43.3125 58.59375 39.234375 62.25 
Q 35.15625 65.921875 28.609375 65.921875 
Q 23.96875 65.921875 18.8125 64.3125 
Q 13.671875 62.703125 7.8125 59.421875 
L 7.8125 69.390625 
Q 13.765625 71.78125 18.9375 73 
Q 24.125 74.21875 28.421875 74.21875 
Q 39.75 74.21875 46.484375 68.546875 
Q 53.21875 62.890625 53.21875 53.421875 
Q 53.21875 48.921875 51.53125 44.890625 
Q 49.859375 40.875 45.40625 35.40625 
Q 44.1875 33.984375 37.640625 27.21875 
Q 31.109375 20.453125 19.1875 8.296875 
z
" id="DejaVuSans-50"/>
      </defs>
      <g style="fill:#ffffff;" transform="translate(225.174284 456.678437)scale(0.1 -0.1)">
       <use xlink:href="#DejaVuSans-48"/>
       <use x="63.623047" xlink:href="#DejaVuSans-46"/>
       <use x="95.410156" xlink:href="#DejaVuSans-50"/>
      </g>
     </g>
    </g>
    <g id="xtick_3">
     <g id="line2d_5">
      <path clip-path="url(#p1737687ead)" d="M 393.258615 442.08 
L 393.258615 7.2 
" style="fill:none;stroke:#ffffff;stroke-linecap:square;stroke-width:0.8;"/>
     </g>
     <g id="line2d_6">
      <g>
       <use style="fill:#ffffff;stroke:#ffffff;stroke-width:0.8;" x="393.258615" xlink:href="#md78ff7429d" y="442.08"/>
      </g>
     </g>
     <g id="text_3">
      <!-- 0.4 -->
      <defs>
       <path d="M 37.796875 64.3125 
L 12.890625 25.390625 
L 37.796875 25.390625 
z
M 35.203125 72.90625 
L 47.609375 72.90625 
L 47.609375 25.390625 
L 58.015625 25.390625 
L 58.015625 17.1875 
L 47.609375 17.1875 
L 47.609375 0 
L 37.796875 0 
L 37.796875 17.1875 
L 4.890625 17.1875 
L 4.890625 26.703125 
z
" id="DejaVuSans-52"/>
      </defs>
      <g style="fill:#ffffff;" transform="translate(385.307053 456.678437)scale(0.1 -0.1)">
       <use xlink:href="#DejaVuSans-48"/>
       <use x="63.623047" xlink:href="#DejaVuSans-46"/>
       <use x="95.410156" xlink:href="#DejaVuSans-52"/>
      </g>
     </g>
    </g>
    <g id="xtick_4">
     <g id="line2d_7">
      <path clip-path="url(#p1737687ead)" d="M 553.391385 442.08 
L 553.391385 7.2 
" style="fill:none;stroke:#ffffff;stroke-linecap:square;stroke-width:0.8;"/>
     </g>
     <g id="line2d_8">
      <g>
       <use style="fill:#ffffff;stroke:#ffffff;stroke-width:0.8;" x="553.391385" xlink:href="#md78ff7429d" y="442.08"/>
      </g>
     </g>
     <g id="text_4">
      <!-- 0.6 -->
      <defs>
       <path d="M 33.015625 40.375 
Q 26.375 40.375 22.484375 35.828125 
Q 18.609375 31.296875 18.609375 23.390625 
Q 18.609375 15.53125 22.484375 10.953125 
Q 26.375 6.390625 33.015625 6.390625 
Q 39.65625 6.390625 43.53125 10.953125 
Q 47.40625 15.53125 47.40625 23.390625 
Q 47.40625 31.296875 43.53125 35.828125 
Q 39.65625 40.375 33.015625 40.375 
z
M 52.59375 71.296875 
L 52.59375 62.3125 
Q 48.875 64.0625 45.09375 64.984375 
Q 41.3125 65.921875 37.59375 65.921875 
Q 27.828125 65.921875 22.671875 59.328125 
Q 17.53125 52.734375 16.796875 39.40625 
Q 19.671875 43.65625 24.015625 45.921875 
Q 28.375 48.1875 33.59375 48.1875 
Q 44.578125 48.1875 50.953125 41.515625 
Q 57.328125 34.859375 57.328125 23.390625 
Q 57.328125 12.15625 50.6875 5.359375 
Q 44.046875 -1.421875 33.015625 -1.421875 
Q 20.359375 -1.421875 13.671875 8.265625 
Q 6.984375 17.96875 6.984375 36.375 
Q 6.984375 53.65625 15.1875 63.9375 
Q 23.390625 74.21875 37.203125 74.21875 
Q 40.921875 74.21875 44.703125 73.484375 
Q 48.484375 72.75 52.59375 71.296875 
z
" id="DejaVuSans-54"/>
      </defs>
      <g style="fill:#ffffff;" transform="translate(545.439822 456.678437)scale(0.1 -0.1)">
       <use xlink:href="#DejaVuSans-48"/>
       <use x="63.623047" xlink:href="#DejaVuSans-46"/>
       <use x="95.410156" xlink:href="#DejaVuSans-54"/>
      </g>
     </g>
    </g>
    <g id="xtick_5">
     <g id="line2d_9">
      <path clip-path="url(#p1737687ead)" d="M 713.524154 442.08 
L 713.524154 7.2 
" style="fill:none;stroke:#ffffff;stroke-linecap:square;stroke-width:0.8;"/>
     </g>
     <g id="line2d_10">
      <g>
       <use style="fill:#ffffff;stroke:#ffffff;stroke-width:0.8;" x="713.524154" xlink:href="#md78ff7429d" y="442.08"/>
      </g>
     </g>
     <g id="text_5">
      <!-- 0.8 -->
      <defs>
       <path d="M 31.78125 34.625 
Q 24.75 34.625 20.71875 30.859375 
Q 16.703125 27.09375 16.703125 20.515625 
Q 16.703125 13.921875 20.71875 10.15625 
Q 24.75 6.390625 31.78125 6.390625 
Q 38.8125 6.390625 42.859375 10.171875 
Q 46.921875 13.96875 46.921875 20.515625 
Q 46.921875 27.09375 42.890625 30.859375 
Q 38.875 34.625 31.78125 34.625 
z
M 21.921875 38.8125 
Q 15.578125 40.375 12.03125 44.71875 
Q 8.5 49.078125 8.5 55.328125 
Q 8.5 64.0625 14.71875 69.140625 
Q 20.953125 74.21875 31.78125 74.21875 
Q 42.671875 74.21875 48.875 69.140625 
Q 55.078125 64.0625 55.078125 55.328125 
Q 55.078125 49.078125 51.53125 44.71875 
Q 48 40.375 41.703125 38.8125 
Q 48.828125 37.15625 52.796875 32.3125 
Q 56.78125 27.484375 56.78125 20.515625 
Q 56.78125 9.90625 50.3125 4.234375 
Q 43.84375 -1.421875 31.78125 -1.421875 
Q 19.734375 -1.421875 13.25 4.234375 
Q 6.78125 9.90625 6.78125 20.515625 
Q 6.78125 27.484375 10.78125 32.3125 
Q 14.796875 37.15625 21.921875 38.8125 
z
M 18.3125 54.390625 
Q 18.3125 48.734375 21.84375 45.5625 
Q 25.390625 42.390625 31.78125 42.390625 
Q 38.140625 42.390625 41.71875 45.5625 
Q 45.3125 48.734375 45.3125 54.390625 
Q 45.3125 60.0625 41.71875 63.234375 
Q 38.140625 66.40625 31.78125 66.40625 
Q 25.390625 66.40625 21.84375 63.234375 
Q 18.3125 60.0625 18.3125 54.390625 
z
" id="DejaVuSans-56"/>
      </defs>
      <g style="fill:#ffffff;" transform="translate(705.572591 456.678437)scale(0.1 -0.1)">
       <use xlink:href="#DejaVuSans-48"/>
       <use x="63.623047" xlink:href="#DejaVuSans-46"/>
       <use x="95.410156" xlink:href="#DejaVuSans-56"/>
      </g>
     </g>
    </g>
    <g id="xtick_6">
     <g id="line2d_11">
      <path clip-path="url(#p1737687ead)" d="M 873.656923 442.08 
L 873.656923 7.2 
" style="fill:none;stroke:#ffffff;stroke-linecap:square;stroke-width:0.8;"/>
     </g>
     <g id="line2d_12">
      <g>
       <use style="fill:#ffffff;stroke:#ffffff;stroke-width:0.8;" x="873.656923" xlink:href="#md78ff7429d" y="442.08"/>
      </g>
     </g>
     <g id="text_6">
      <!-- 1.0 -->
      <defs>
       <path d="M 12.40625 8.296875 
L 28.515625 8.296875 
L 28.515625 63.921875 
L 10.984375 60.40625 
L 10.984375 69.390625 
L 28.421875 72.90625 
L 38.28125 72.90625 
L 38.28125 8.296875 
L 54.390625 8.296875 
L 54.390625 0 
L 12.40625 0 
z
" id="DejaVuSans-49"/>
      </defs>
      <g style="fill:#ffffff;" transform="translate(865.705361 456.678437)scale(0.1 -0.1)">
       <use xlink:href="#DejaVuSans-49"/>
       <use x="63.623047" xlink:href="#DejaVuSans-46"/>
       <use x="95.410156" xlink:href="#DejaVuSans-48"/>
      </g>
     </g>
    </g>
   </g>
   <g id="matplotlib.axis_2">
    <g id="ytick_1">
     <g id="line2d_13">
      <path clip-path="url(#p1737687ead)" d="M 26.925 442.08 
L 919.725 442.08 
" style="fill:none;stroke:#ffffff;stroke-linecap:square;stroke-width:0.8;"/>
     </g>
     <g id="line2d_14">
      <defs>
       <path d="M 0 0 
L -3.5 0 
" id="m22c31225fc" style="stroke:#ffffff;stroke-width:0.8;"/>
      </defs>
      <g>
       <use style="fill:#ffffff;stroke:#ffffff;stroke-width:0.8;" x="26.925" xlink:href="#m22c31225fc" y="442.08"/>
      </g>
     </g>
     <g id="text_7">
      <!-- 0 -->
      <g style="fill:#ffffff;" transform="translate(13.5625 445.879219)scale(0.1 -0.1)">
       <use xlink:href="#DejaVuSans-48"/>
      </g>
     </g>
    </g>
    <g id="ytick_2">
     <g id="line2d_15">
      <path clip-path="url(#p1737687ead)" d="M 26.925 386.616704 
L 919.725 386.616704 
" style="fill:none;stroke:#ffffff;stroke-linecap:square;stroke-width:0.8;"/>
     </g>
     <g id="line2d_16">
      <g>
       <use style="fill:#ffffff;stroke:#ffffff;stroke-width:0.8;" x="26.925" xlink:href="#m22c31225fc" y="386.616704"/>
      </g>
     </g>
     <g id="text_8">
      <!-- 5 -->
      <defs>
       <path d="M 10.796875 72.90625 
L 49.515625 72.90625 
L 49.515625 64.59375 
L 19.828125 64.59375 
L 19.828125 46.734375 
Q 21.96875 47.46875 24.109375 47.828125 
Q 26.265625 48.1875 28.421875 48.1875 
Q 40.625 48.1875 47.75 41.5 
Q 54.890625 34.8125 54.890625 23.390625 
Q 54.890625 11.625 47.5625 5.09375 
Q 40.234375 -1.421875 26.90625 -1.421875 
Q 22.3125 -1.421875 17.546875 -0.640625 
Q 12.796875 0.140625 7.71875 1.703125 
L 7.71875 11.625 
Q 12.109375 9.234375 16.796875 8.0625 
Q 21.484375 6.890625 26.703125 6.890625 
Q 35.15625 6.890625 40.078125 11.328125 
Q 45.015625 15.765625 45.015625 23.390625 
Q 45.015625 31 40.078125 35.4375 
Q 35.15625 39.890625 26.703125 39.890625 
Q 22.75 39.890625 18.8125 39.015625 
Q 14.890625 38.140625 10.796875 36.28125 
z
" id="DejaVuSans-53"/>
      </defs>
      <g style="fill:#ffffff;" transform="translate(13.5625 390.415923)scale(0.1 -0.1)">
       <use xlink:href="#DejaVuSans-53"/>
      </g>
     </g>
    </g>
    <g id="ytick_3">
     <g id="line2d_17">
      <path clip-path="url(#p1737687ead)" d="M 26.925 331.153409 
L 919.725 331.153409 
" style="fill:none;stroke:#ffffff;stroke-linecap:square;stroke-width:0.8;"/>
     </g>
     <g id="line2d_18">
      <g>
       <use style="fill:#ffffff;stroke:#ffffff;stroke-width:0.8;" x="26.925" xlink:href="#m22c31225fc" y="331.153409"/>
      </g>
     </g>
     <g id="text_9">
      <!-- 10 -->
      <g style="fill:#ffffff;" transform="translate(7.2 334.952628)scale(0.1 -0.1)">
       <use xlink:href="#DejaVuSans-49"/>
       <use x="63.623047" xlink:href="#DejaVuSans-48"/>
      </g>
     </g>
    </g>
    <g id="ytick_4">
     <g id="line2d_19">
      <path clip-path="url(#p1737687ead)" d="M 26.925 275.690113 
L 919.725 275.690113 
" style="fill:none;stroke:#ffffff;stroke-linecap:square;stroke-width:0.8;"/>
     </g>
     <g id="line2d_20">
      <g>
       <use style="fill:#ffffff;stroke:#ffffff;stroke-width:0.8;" x="26.925" xlink:href="#m22c31225fc" y="275.690113"/>
      </g>
     </g>
     <g id="text_10">
      <!-- 15 -->
      <g style="fill:#ffffff;" transform="translate(7.2 279.489332)scale(0.1 -0.1)">
       <use xlink:href="#DejaVuSans-49"/>
       <use x="63.623047" xlink:href="#DejaVuSans-53"/>
      </g>
     </g>
    </g>
    <g id="ytick_5">
     <g id="line2d_21">
      <path clip-path="url(#p1737687ead)" d="M 26.925 220.226818 
L 919.725 220.226818 
" style="fill:none;stroke:#ffffff;stroke-linecap:square;stroke-width:0.8;"/>
     </g>
     <g id="line2d_22">
      <g>
       <use style="fill:#ffffff;stroke:#ffffff;stroke-width:0.8;" x="26.925" xlink:href="#m22c31225fc" y="220.226818"/>
      </g>
     </g>
     <g id="text_11">
      <!-- 20 -->
      <g style="fill:#ffffff;" transform="translate(7.2 224.026036)scale(0.1 -0.1)">
       <use xlink:href="#DejaVuSans-50"/>
       <use x="63.623047" xlink:href="#DejaVuSans-48"/>
      </g>
     </g>
    </g>
    <g id="ytick_6">
     <g id="line2d_23">
      <path clip-path="url(#p1737687ead)" d="M 26.925 164.763522 
L 919.725 164.763522 
" style="fill:none;stroke:#ffffff;stroke-linecap:square;stroke-width:0.8;"/>
     </g>
     <g id="line2d_24">
      <g>
       <use style="fill:#ffffff;stroke:#ffffff;stroke-width:0.8;" x="26.925" xlink:href="#m22c31225fc" y="164.763522"/>
      </g>
     </g>
     <g id="text_12">
      <!-- 25 -->
      <g style="fill:#ffffff;" transform="translate(7.2 168.562741)scale(0.1 -0.1)">
       <use xlink:href="#DejaVuSans-50"/>
       <use x="63.623047" xlink:href="#DejaVuSans-53"/>
      </g>
     </g>
    </g>
    <g id="ytick_7">
     <g id="line2d_25">
      <path clip-path="url(#p1737687ead)" d="M 26.925 109.300227 
L 919.725 109.300227 
" style="fill:none;stroke:#ffffff;stroke-linecap:square;stroke-width:0.8;"/>
     </g>
     <g id="line2d_26">
      <g>
       <use style="fill:#ffffff;stroke:#ffffff;stroke-width:0.8;" x="26.925" xlink:href="#m22c31225fc" y="109.300227"/>
      </g>
     </g>
     <g id="text_13">
      <!-- 30 -->
      <defs>
       <path d="M 40.578125 39.3125 
Q 47.65625 37.796875 51.625 33 
Q 55.609375 28.21875 55.609375 21.1875 
Q 55.609375 10.40625 48.1875 4.484375 
Q 40.765625 -1.421875 27.09375 -1.421875 
Q 22.515625 -1.421875 17.65625 -0.515625 
Q 12.796875 0.390625 7.625 2.203125 
L 7.625 11.71875 
Q 11.71875 9.328125 16.59375 8.109375 
Q 21.484375 6.890625 26.8125 6.890625 
Q 36.078125 6.890625 40.9375 10.546875 
Q 45.796875 14.203125 45.796875 21.1875 
Q 45.796875 27.640625 41.28125 31.265625 
Q 36.765625 34.90625 28.71875 34.90625 
L 20.21875 34.90625 
L 20.21875 43.015625 
L 29.109375 43.015625 
Q 36.375 43.015625 40.234375 45.921875 
Q 44.09375 48.828125 44.09375 54.296875 
Q 44.09375 59.90625 40.109375 62.90625 
Q 36.140625 65.921875 28.71875 65.921875 
Q 24.65625 65.921875 20.015625 65.03125 
Q 15.375 64.15625 9.8125 62.3125 
L 9.8125 71.09375 
Q 15.4375 72.65625 20.34375 73.4375 
Q 25.25 74.21875 29.59375 74.21875 
Q 40.828125 74.21875 47.359375 69.109375 
Q 53.90625 64.015625 53.90625 55.328125 
Q 53.90625 49.265625 50.4375 45.09375 
Q 46.96875 40.921875 40.578125 39.3125 
z
" id="DejaVuSans-51"/>
      </defs>
      <g style="fill:#ffffff;" transform="translate(7.2 113.099445)scale(0.1 -0.1)">
       <use xlink:href="#DejaVuSans-51"/>
       <use x="63.623047" xlink:href="#DejaVuSans-48"/>
      </g>
     </g>
    </g>
    <g id="ytick_8">
     <g id="line2d_27">
      <path clip-path="url(#p1737687ead)" d="M 26.925 53.836931 
L 919.725 53.836931 
" style="fill:none;stroke:#ffffff;stroke-linecap:square;stroke-width:0.8;"/>
     </g>
     <g id="line2d_28">
      <g>
       <use style="fill:#ffffff;stroke:#ffffff;stroke-width:0.8;" x="26.925" xlink:href="#m22c31225fc" y="53.836931"/>
      </g>
     </g>
     <g id="text_14">
      <!-- 35 -->
      <g style="fill:#ffffff;" transform="translate(7.2 57.63615)scale(0.1 -0.1)">
       <use xlink:href="#DejaVuSans-51"/>
       <use x="63.623047" xlink:href="#DejaVuSans-53"/>
      </g>
     </g>
    </g>
   </g>
   <g id="line2d_29">
    <path clip-path="url(#p1737687ead)" d="M 67.506818 436.81441 
L 73.897656 442.08 
L 80.288493 423.436594 
L 86.679331 385.690333 
L 93.070168 375.841725 
L 99.461006 409.285743 
L 105.851843 418.856737 
L 112.242681 429.748485 
L 118.633518 431.512069 
L 125.024356 435.653355 
L 131.415193 435.241124 
L 137.806031 437.235638 
L 144.196868 435.261257 
L 150.587706 437.333806 
L 156.978543 436.054766 
L 163.369381 437.733849 
L 169.760218 435.328318 
L 176.151056 434.986457 
L 182.541893 432.344928 
L 188.932731 433.222785 
L 195.323568 434.430115 
L 201.714406 436.027656 
L 208.105243 436.647492 
L 214.496081 439.207661 
L 220.886918 438.721265 
L 227.277756 440.639535 
L 233.668593 440.095382 
L 240.059431 441.72488 
L 246.450268 440.970302 
L 252.841106 441.874329 
L 259.231943 441.236749 
L 265.622781 442.08 
L 272.013618 441.863815 
L 278.404456 442.08 
L 284.795293 441.940989 
L 291.186131 442.08 
L 297.576969 441.968565 
L 303.967806 442.08 
L 310.358644 441.970781 
L 316.749481 442.08 
L 323.140319 441.978177 
L 329.531156 442.08 
L 335.921994 441.984994 
L 342.312831 442.08 
L 348.703669 441.990564 
L 355.094506 442.08 
L 361.485344 441.994689 
L 367.876181 442.08 
L 374.267019 441.996768 
L 380.657856 442.08 
L 387.048694 441.99385 
L 393.439531 442.08 
L 399.830369 441.877854 
L 406.221206 442.08 
L 412.612044 442.009501 
L 419.002881 442.08 
L 425.393719 442.010459 
L 431.784556 442.08 
L 438.175394 441.96483 
L 444.566231 442.08 
L 470.129581 441.821111 
L 476.520419 442.067048 
L 482.911256 442.08 
L 489.302094 441.919552 
L 495.692931 442.08 
L 502.083769 441.862878 
L 508.474606 442.006591 
L 514.865444 441.894576 
L 521.256281 442.057172 
L 527.647119 441.770067 
L 534.037956 442.076661 
L 540.428794 441.892306 
L 546.819631 441.885424 
L 553.210469 441.629934 
L 565.992144 441.853965 
L 572.382981 441.44253 
L 578.773819 441.881839 
L 585.164656 441.624234 
L 591.555494 441.554133 
L 597.946331 441.883473 
L 604.337169 441.439506 
L 610.728006 441.262857 
L 623.509681 441.477522 
L 636.291356 441.137701 
L 642.682194 441.711336 
L 649.073031 441.061209 
L 655.463869 440.951958 
L 661.854707 441.091185 
L 668.245544 441.34447 
L 681.027219 440.926477 
L 687.418057 440.459396 
L 693.808894 440.175734 
L 700.199732 441.00669 
L 706.590569 439.876181 
L 712.981407 440.996241 
L 719.372244 440.386944 
L 725.763082 440.022796 
L 732.153919 440.699822 
L 738.544757 439.499688 
L 744.935594 440.637416 
L 751.326432 439.699825 
L 757.717269 440.40896 
L 764.108107 440.449662 
L 770.498944 440.350434 
L 776.889782 440.780301 
L 783.280619 440.752918 
L 789.671457 441.006533 
L 796.062294 441.023924 
L 802.453132 442.08 
L 808.843969 441.039131 
L 815.234807 442.08 
L 821.625644 440.95706 
L 828.016482 442.08 
L 834.407319 440.343789 
L 840.798157 442.08 
L 847.188994 439.121895 
L 853.579832 442.08 
L 859.970669 435.874633 
L 866.361507 442.08 
L 872.752344 389.00276 
L 879.143182 442.08 
L 879.143182 442.08 
" style="fill:none;stroke:#8dd3c7;stroke-linecap:square;stroke-width:1.5;"/>
   </g>
   <g id="patch_53">
    <path d="M 26.925 442.08 
L 26.925 7.2 
" style="fill:none;stroke:#ffffff;stroke-linecap:square;stroke-linejoin:miter;stroke-width:0.8;"/>
   </g>
   <g id="patch_54">
    <path d="M 919.725 442.08 
L 919.725 7.2 
" style="fill:none;stroke:#ffffff;stroke-linecap:square;stroke-linejoin:miter;stroke-width:0.8;"/>
   </g>
   <g id="patch_55">
    <path d="M 26.925 442.08 
L 919.725 442.08 
" style="fill:none;stroke:#ffffff;stroke-linecap:square;stroke-linejoin:miter;stroke-width:0.8;"/>
   </g>
   <g id="patch_56">
    <path d="M 26.925 7.2 
L 919.725 7.2 
" style="fill:none;stroke:#ffffff;stroke-linecap:square;stroke-linejoin:miter;stroke-width:0.8;"/>
   </g>
  </g>
 </g>
 <defs>
  <clipPath id="p1737687ead">
   <rect height="434.88" width="892.8" x="26.925" y="7.2"/>
  </clipPath>
 </defs>
</svg>
