<?xml version="1.0" encoding="utf-8" standalone="no"?>
<!DOCTYPE svg PUBLIC "-//W3C//DTD SVG 1.1//EN"
  "http://www.w3.org/Graphics/SVG/1.1/DTD/svg11.dtd">
<!-- Created with matplotlib (https://matplotlib.org/) -->
<svg height="465.958125pt" version="1.1" viewBox="0 0 926.925 465.958125" width="926.925pt" xmlns="http://www.w3.org/2000/svg" xmlns:xlink="http://www.w3.org/1999/xlink">
 <defs>
  <style type="text/css">
*{stroke-linecap:butt;stroke-linejoin:round;}
  </style>
 </defs>
 <g id="figure_1">
  <g id="patch_1">
   <path d="M 0 465.958125 
L 926.925 465.958125 
L 926.925 0 
L 0 0 
z
"/>
  </g>
  <g id="axes_1">
   <g id="patch_2">
    <path d="M 26.925 442.08 
L 919.725 442.08 
L 919.725 7.2 
L 26.925 7.2 
z
"/>
   </g>
   <g id="patch_3">
    <path clip-path="url(#peef9ae8d4f)" d="M 71.550477 442.08 
L 87.621458 442.08 
L 87.621458 27.908571 
L 71.550477 27.908571 
z
" style="fill:#8dd3c7;opacity:0.4;"/>
   </g>
   <g id="patch_4">
    <path clip-path="url(#peef9ae8d4f)" d="M 87.621458 442.08 
L 103.692439 442.08 
L 103.692439 413.056393 
L 87.621458 413.056393 
z
" style="fill:#8dd3c7;opacity:0.4;"/>
   </g>
   <g id="patch_5">
    <path clip-path="url(#peef9ae8d4f)" d="M 103.692439 442.08 
L 119.76342 442.08 
L 119.76342 435.485107 
L 103.692439 435.485107 
z
" style="fill:#8dd3c7;opacity:0.4;"/>
   </g>
   <g id="patch_6">
    <path clip-path="url(#peef9ae8d4f)" d="M 119.76342 442.08 
L 135.834401 442.08 
L 135.834401 434.786109 
L 119.76342 434.786109 
z
" style="fill:#8dd3c7;opacity:0.4;"/>
   </g>
   <g id="patch_7">
    <path clip-path="url(#peef9ae8d4f)" d="M 135.834401 442.08 
L 151.905382 442.08 
L 151.905382 430.804861 
L 135.834401 430.804861 
z
" style="fill:#8dd3c7;opacity:0.4;"/>
   </g>
   <g id="patch_8">
    <path clip-path="url(#peef9ae8d4f)" d="M 151.905382 442.08 
L 167.976363 442.08 
L 167.976363 429.862733 
L 151.905382 429.862733 
z
" style="fill:#8dd3c7;opacity:0.4;"/>
   </g>
   <g id="patch_9">
    <path clip-path="url(#peef9ae8d4f)" d="M 167.976363 442.08 
L 184.047344 442.08 
L 184.047344 438.949705 
L 167.976363 438.949705 
z
" style="fill:#8dd3c7;opacity:0.4;"/>
   </g>
   <g id="patch_10">
    <path clip-path="url(#peef9ae8d4f)" d="M 184.047344 442.08 
L 200.118324 442.08 
L 200.118324 441.624132 
L 184.047344 441.624132 
z
" style="fill:#8dd3c7;opacity:0.4;"/>
   </g>
   <g id="patch_11">
    <path clip-path="url(#peef9ae8d4f)" d="M 200.118324 442.08 
L 216.189305 442.08 
L 216.189305 442.049609 
L 200.118324 442.049609 
z
" style="fill:#8dd3c7;opacity:0.4;"/>
   </g>
   <g id="patch_12">
    <path clip-path="url(#peef9ae8d4f)" d="M 216.189305 442.08 
L 232.260286 442.08 
L 232.260286 442.08 
L 216.189305 442.08 
z
" style="fill:#8dd3c7;opacity:0.4;"/>
   </g>
   <g id="patch_13">
    <path clip-path="url(#peef9ae8d4f)" d="M 232.260286 442.08 
L 248.331267 442.08 
L 248.331267 442.08 
L 232.260286 442.08 
z
" style="fill:#8dd3c7;opacity:0.4;"/>
   </g>
   <g id="patch_14">
    <path clip-path="url(#peef9ae8d4f)" d="M 248.331267 442.08 
L 264.402248 442.08 
L 264.402248 442.08 
L 248.331267 442.08 
z
" style="fill:#8dd3c7;opacity:0.4;"/>
   </g>
   <g id="patch_15">
    <path clip-path="url(#peef9ae8d4f)" d="M 264.402248 442.08 
L 280.473229 442.08 
L 280.473229 442.08 
L 264.402248 442.08 
z
" style="fill:#8dd3c7;opacity:0.4;"/>
   </g>
   <g id="patch_16">
    <path clip-path="url(#peef9ae8d4f)" d="M 280.473229 442.08 
L 296.54421 442.08 
L 296.54421 442.08 
L 280.473229 442.08 
z
" style="fill:#8dd3c7;opacity:0.4;"/>
   </g>
   <g id="patch_17">
    <path clip-path="url(#peef9ae8d4f)" d="M 296.54421 442.08 
L 312.615191 442.08 
L 312.615191 442.08 
L 296.54421 442.08 
z
" style="fill:#8dd3c7;opacity:0.4;"/>
   </g>
   <g id="patch_18">
    <path clip-path="url(#peef9ae8d4f)" d="M 312.615191 442.08 
L 328.686172 442.08 
L 328.686172 442.08 
L 312.615191 442.08 
z
" style="fill:#8dd3c7;opacity:0.4;"/>
   </g>
   <g id="patch_19">
    <path clip-path="url(#peef9ae8d4f)" d="M 328.686172 442.08 
L 344.757153 442.08 
L 344.757153 442.08 
L 328.686172 442.08 
z
" style="fill:#8dd3c7;opacity:0.4;"/>
   </g>
   <g id="patch_20">
    <path clip-path="url(#peef9ae8d4f)" d="M 344.757153 442.08 
L 360.828134 442.08 
L 360.828134 442.08 
L 344.757153 442.08 
z
" style="fill:#8dd3c7;opacity:0.4;"/>
   </g>
   <g id="patch_21">
    <path clip-path="url(#peef9ae8d4f)" d="M 360.828134 442.08 
L 376.899115 442.08 
L 376.899115 442.08 
L 360.828134 442.08 
z
" style="fill:#8dd3c7;opacity:0.4;"/>
   </g>
   <g id="patch_22">
    <path clip-path="url(#peef9ae8d4f)" d="M 376.899115 442.08 
L 392.970095 442.08 
L 392.970095 442.08 
L 376.899115 442.08 
z
" style="fill:#8dd3c7;opacity:0.4;"/>
   </g>
   <g id="patch_23">
    <path clip-path="url(#peef9ae8d4f)" d="M 392.970095 442.08 
L 409.041076 442.08 
L 409.041076 441.988826 
L 392.970095 441.988826 
z
" style="fill:#8dd3c7;opacity:0.4;"/>
   </g>
   <g id="patch_24">
    <path clip-path="url(#peef9ae8d4f)" d="M 409.041076 442.08 
L 425.112057 442.08 
L 425.112057 442.049609 
L 409.041076 442.049609 
z
" style="fill:#8dd3c7;opacity:0.4;"/>
   </g>
   <g id="patch_25">
    <path clip-path="url(#peef9ae8d4f)" d="M 425.112057 442.08 
L 441.183038 442.08 
L 441.183038 441.958435 
L 425.112057 441.958435 
z
" style="fill:#8dd3c7;opacity:0.4;"/>
   </g>
   <g id="patch_26">
    <path clip-path="url(#peef9ae8d4f)" d="M 441.183038 442.08 
L 457.254019 442.08 
L 457.254019 441.867262 
L 441.183038 441.867262 
z
" style="fill:#8dd3c7;opacity:0.4;"/>
   </g>
   <g id="patch_27">
    <path clip-path="url(#peef9ae8d4f)" d="M 457.254019 442.08 
L 473.325 442.08 
L 473.325 441.715305 
L 457.254019 441.715305 
z
" style="fill:#8dd3c7;opacity:0.4;"/>
   </g>
   <g id="patch_28">
    <path clip-path="url(#peef9ae8d4f)" d="M 473.325 442.08 
L 489.395981 442.08 
L 489.395981 441.168264 
L 473.325 441.168264 
z
" style="fill:#8dd3c7;opacity:0.4;"/>
   </g>
   <g id="patch_29">
    <path clip-path="url(#peef9ae8d4f)" d="M 489.395981 442.08 
L 505.466962 442.08 
L 505.466962 440.682004 
L 489.395981 440.682004 
z
" style="fill:#8dd3c7;opacity:0.4;"/>
   </g>
   <g id="patch_30">
    <path clip-path="url(#peef9ae8d4f)" d="M 505.466962 442.08 
L 521.537943 442.08 
L 521.537943 439.435965 
L 505.466962 439.435965 
z
" style="fill:#8dd3c7;opacity:0.4;"/>
   </g>
   <g id="patch_31">
    <path clip-path="url(#peef9ae8d4f)" d="M 521.537943 442.08 
L 537.608924 442.08 
L 537.608924 438.736967 
L 521.537943 438.736967 
z
" style="fill:#8dd3c7;opacity:0.4;"/>
   </g>
   <g id="patch_32">
    <path clip-path="url(#peef9ae8d4f)" d="M 537.608924 442.08 
L 553.679905 442.08 
L 553.679905 437.30858 
L 537.608924 437.30858 
z
" style="fill:#8dd3c7;opacity:0.4;"/>
   </g>
   <g id="patch_33">
    <path clip-path="url(#peef9ae8d4f)" d="M 553.679905 442.08 
L 569.750885 442.08 
L 569.750885 439.83105 
L 553.679905 439.83105 
z
" style="fill:#8dd3c7;opacity:0.4;"/>
   </g>
   <g id="patch_34">
    <path clip-path="url(#peef9ae8d4f)" d="M 569.750885 442.08 
L 585.821866 442.08 
L 585.821866 440.590831 
L 569.750885 440.590831 
z
" style="fill:#8dd3c7;opacity:0.4;"/>
   </g>
   <g id="patch_35">
    <path clip-path="url(#peef9ae8d4f)" d="M 585.821866 442.08 
L 601.892847 442.08 
L 601.892847 441.107481 
L 585.821866 441.107481 
z
" style="fill:#8dd3c7;opacity:0.4;"/>
   </g>
   <g id="patch_36">
    <path clip-path="url(#peef9ae8d4f)" d="M 601.892847 442.08 
L 617.963828 442.08 
L 617.963828 440.469266 
L 601.892847 440.469266 
z
" style="fill:#8dd3c7;opacity:0.4;"/>
   </g>
   <g id="patch_37">
    <path clip-path="url(#peef9ae8d4f)" d="M 617.963828 442.08 
L 634.034809 442.08 
L 634.034809 439.527138 
L 617.963828 439.527138 
z
" style="fill:#8dd3c7;opacity:0.4;"/>
   </g>
   <g id="patch_38">
    <path clip-path="url(#peef9ae8d4f)" d="M 634.034809 442.08 
L 650.10579 442.08 
L 650.10579 439.253617 
L 634.034809 439.253617 
z
" style="fill:#8dd3c7;opacity:0.4;"/>
   </g>
   <g id="patch_39">
    <path clip-path="url(#peef9ae8d4f)" d="M 650.10579 442.08 
L 666.176771 442.08 
L 666.176771 439.648703 
L 650.10579 439.648703 
z
" style="fill:#8dd3c7;opacity:0.4;"/>
   </g>
   <g id="patch_40">
    <path clip-path="url(#peef9ae8d4f)" d="M 666.176771 442.08 
L 682.247752 442.08 
L 682.247752 440.955525 
L 666.176771 440.955525 
z
" style="fill:#8dd3c7;opacity:0.4;"/>
   </g>
   <g id="patch_41">
    <path clip-path="url(#peef9ae8d4f)" d="M 682.247752 442.08 
L 698.318733 442.08 
L 698.318733 440.712395 
L 682.247752 440.712395 
z
" style="fill:#8dd3c7;opacity:0.4;"/>
   </g>
   <g id="patch_42">
    <path clip-path="url(#peef9ae8d4f)" d="M 698.318733 442.08 
L 714.389714 442.08 
L 714.389714 441.07709 
L 698.318733 441.07709 
z
" style="fill:#8dd3c7;opacity:0.4;"/>
   </g>
   <g id="patch_43">
    <path clip-path="url(#peef9ae8d4f)" d="M 714.389714 442.08 
L 730.460695 442.08 
L 730.460695 441.229046 
L 714.389714 441.229046 
z
" style="fill:#8dd3c7;opacity:0.4;"/>
   </g>
   <g id="patch_44">
    <path clip-path="url(#peef9ae8d4f)" d="M 730.460695 442.08 
L 746.531676 442.08 
L 746.531676 441.229046 
L 730.460695 441.229046 
z
" style="fill:#8dd3c7;opacity:0.4;"/>
   </g>
   <g id="patch_45">
    <path clip-path="url(#peef9ae8d4f)" d="M 746.531676 442.08 
L 762.602656 442.08 
L 762.602656 441.532958 
L 746.531676 441.532958 
z
" style="fill:#8dd3c7;opacity:0.4;"/>
   </g>
   <g id="patch_46">
    <path clip-path="url(#peef9ae8d4f)" d="M 762.602656 442.08 
L 778.673637 442.08 
L 778.673637 441.715305 
L 762.602656 441.715305 
z
" style="fill:#8dd3c7;opacity:0.4;"/>
   </g>
   <g id="patch_47">
    <path clip-path="url(#peef9ae8d4f)" d="M 778.673637 442.08 
L 794.744618 442.08 
L 794.744618 441.958435 
L 778.673637 441.958435 
z
" style="fill:#8dd3c7;opacity:0.4;"/>
   </g>
   <g id="patch_48">
    <path clip-path="url(#peef9ae8d4f)" d="M 794.744618 442.08 
L 810.815599 442.08 
L 810.815599 441.928044 
L 794.744618 441.928044 
z
" style="fill:#8dd3c7;opacity:0.4;"/>
   </g>
   <g id="patch_49">
    <path clip-path="url(#peef9ae8d4f)" d="M 810.815599 442.08 
L 826.88658 442.08 
L 826.88658 442.019218 
L 810.815599 442.019218 
z
" style="fill:#8dd3c7;opacity:0.4;"/>
   </g>
   <g id="patch_50">
    <path clip-path="url(#peef9ae8d4f)" d="M 826.88658 442.08 
L 842.957561 442.08 
L 842.957561 442.019218 
L 826.88658 442.019218 
z
" style="fill:#8dd3c7;opacity:0.4;"/>
   </g>
   <g id="patch_51">
    <path clip-path="url(#peef9ae8d4f)" d="M 842.957561 442.08 
L 859.028542 442.08 
L 859.028542 442.08 
L 842.957561 442.08 
z
" style="fill:#8dd3c7;opacity:0.4;"/>
   </g>
   <g id="patch_52">
    <path clip-path="url(#peef9ae8d4f)" d="M 859.028542 442.08 
L 875.099523 442.08 
L 875.099523 442.019218 
L 859.028542 442.019218 
z
" style="fill:#8dd3c7;opacity:0.4;"/>
   </g>
   <g id="matplotlib.axis_1">
    <g id="xtick_1">
     <g id="line2d_1">
      <path clip-path="url(#peef9ae8d4f)" d="M 71.550477 442.08 
L 71.550477 7.2 
" style="fill:none;stroke:#ffffff;stroke-linecap:square;stroke-width:0.8;"/>
     </g>
     <g id="line2d_2">
      <defs>
       <path d="M 0 0 
L 0 3.5 
" id="m656297585b" style="stroke:#ffffff;stroke-width:0.8;"/>
      </defs>
      <g>
       <use style="fill:#ffffff;stroke:#ffffff;stroke-width:0.8;" x="71.550477" xlink:href="#m656297585b" y="442.08"/>
      </g>
     </g>
     <g id="text_1">
      <!-- 0.0 -->
      <defs>
       <path d="M 31.78125 66.40625 
Q 24.171875 66.40625 20.328125 58.90625 
Q 16.5 51.421875 16.5 36.375 
Q 16.5 21.390625 20.328125 13.890625 
Q 24.171875 6.390625 31.78125 6.390625 
Q 39.453125 6.390625 43.28125 13.890625 
Q 47.125 21.390625 47.125 36.375 
Q 47.125 51.421875 43.28125 58.90625 
Q 39.453125 66.40625 31.78125 66.40625 
z
M 31.78125 74.21875 
Q 44.046875 74.21875 50.515625 64.515625 
Q 56.984375 54.828125 56.984375 36.375 
Q 56.984375 17.96875 50.515625 8.265625 
Q 44.046875 -1.421875 31.78125 -1.421875 
Q 19.53125 -1.421875 13.0625 8.265625 
Q 6.59375 17.96875 6.59375 36.375 
Q 6.59375 54.828125 13.0625 64.515625 
Q 19.53125 74.21875 31.78125 74.21875 
z
" id="DejaVuSans-48"/>
       <path d="M 10.6875 12.40625 
L 21 12.40625 
L 21 0 
L 10.6875 0 
z
" id="DejaVuSans-46"/>
      </defs>
      <g style="fill:#ffffff;" transform="translate(63.598915 456.678437)scale(0.1 -0.1)">
       <use xlink:href="#DejaVuSans-48"/>
       <use x="63.623047" xlink:href="#DejaVuSans-46"/>
       <use x="95.410156" xlink:href="#DejaVuSans-48"/>
      </g>
     </g>
    </g>
    <g id="xtick_2">
     <g id="line2d_3">
      <path clip-path="url(#peef9ae8d4f)" d="M 201.365169 442.08 
L 201.365169 7.2 
" style="fill:none;stroke:#ffffff;stroke-linecap:square;stroke-width:0.8;"/>
     </g>
     <g id="line2d_4">
      <g>
       <use style="fill:#ffffff;stroke:#ffffff;stroke-width:0.8;" x="201.365169" xlink:href="#m656297585b" y="442.08"/>
      </g>
     </g>
     <g id="text_2">
      <!-- 0.1 -->
      <defs>
       <path d="M 12.40625 8.296875 
L 28.515625 8.296875 
L 28.515625 63.921875 
L 10.984375 60.40625 
L 10.984375 69.390625 
L 28.421875 72.90625 
L 38.28125 72.90625 
L 38.28125 8.296875 
L 54.390625 8.296875 
L 54.390625 0 
L 12.40625 0 
z
" id="DejaVuSans-49"/>
      </defs>
      <g style="fill:#ffffff;" transform="translate(193.413606 456.678437)scale(0.1 -0.1)">
       <use xlink:href="#DejaVuSans-48"/>
       <use x="63.623047" xlink:href="#DejaVuSans-46"/>
       <use x="95.410156" xlink:href="#DejaVuSans-49"/>
      </g>
     </g>
    </g>
    <g id="xtick_3">
     <g id="line2d_5">
      <path clip-path="url(#peef9ae8d4f)" d="M 331.179861 442.08 
L 331.179861 7.2 
" style="fill:none;stroke:#ffffff;stroke-linecap:square;stroke-width:0.8;"/>
     </g>
     <g id="line2d_6">
      <g>
       <use style="fill:#ffffff;stroke:#ffffff;stroke-width:0.8;" x="331.179861" xlink:href="#m656297585b" y="442.08"/>
      </g>
     </g>
     <g id="text_3">
      <!-- 0.2 -->
      <defs>
       <path d="M 19.1875 8.296875 
L 53.609375 8.296875 
L 53.609375 0 
L 7.328125 0 
L 7.328125 8.296875 
Q 12.9375 14.109375 22.625 23.890625 
Q 32.328125 33.6875 34.8125 36.53125 
Q 39.546875 41.84375 41.421875 45.53125 
Q 43.3125 49.21875 43.3125 52.78125 
Q 43.3125 58.59375 39.234375 62.25 
Q 35.15625 65.921875 28.609375 65.921875 
Q 23.96875 65.921875 18.8125 64.3125 
Q 13.671875 62.703125 7.8125 59.421875 
L 7.8125 69.390625 
Q 13.765625 71.78125 18.9375 73 
Q 24.125 74.21875 28.421875 74.21875 
Q 39.75 74.21875 46.484375 68.546875 
Q 53.21875 62.890625 53.21875 53.421875 
Q 53.21875 48.921875 51.53125 44.890625 
Q 49.859375 40.875 45.40625 35.40625 
Q 44.1875 33.984375 37.640625 27.21875 
Q 31.109375 20.453125 19.1875 8.296875 
z
" id="DejaVuSans-50"/>
      </defs>
      <g style="fill:#ffffff;" transform="translate(323.228298 456.678437)scale(0.1 -0.1)">
       <use xlink:href="#DejaVuSans-48"/>
       <use x="63.623047" xlink:href="#DejaVuSans-46"/>
       <use x="95.410156" xlink:href="#DejaVuSans-50"/>
      </g>
     </g>
    </g>
    <g id="xtick_4">
     <g id="line2d_7">
      <path clip-path="url(#peef9ae8d4f)" d="M 460.994553 442.08 
L 460.994553 7.2 
" style="fill:none;stroke:#ffffff;stroke-linecap:square;stroke-width:0.8;"/>
     </g>
     <g id="line2d_8">
      <g>
       <use style="fill:#ffffff;stroke:#ffffff;stroke-width:0.8;" x="460.994553" xlink:href="#m656297585b" y="442.08"/>
      </g>
     </g>
     <g id="text_4">
      <!-- 0.3 -->
      <defs>
       <path d="M 40.578125 39.3125 
Q 47.65625 37.796875 51.625 33 
Q 55.609375 28.21875 55.609375 21.1875 
Q 55.609375 10.40625 48.1875 4.484375 
Q 40.765625 -1.421875 27.09375 -1.421875 
Q 22.515625 -1.421875 17.65625 -0.515625 
Q 12.796875 0.390625 7.625 2.203125 
L 7.625 11.71875 
Q 11.71875 9.328125 16.59375 8.109375 
Q 21.484375 6.890625 26.8125 6.890625 
Q 36.078125 6.890625 40.9375 10.546875 
Q 45.796875 14.203125 45.796875 21.1875 
Q 45.796875 27.640625 41.28125 31.265625 
Q 36.765625 34.90625 28.71875 34.90625 
L 20.21875 34.90625 
L 20.21875 43.015625 
L 29.109375 43.015625 
Q 36.375 43.015625 40.234375 45.921875 
Q 44.09375 48.828125 44.09375 54.296875 
Q 44.09375 59.90625 40.109375 62.90625 
Q 36.140625 65.921875 28.71875 65.921875 
Q 24.65625 65.921875 20.015625 65.03125 
Q 15.375 64.15625 9.8125 62.3125 
L 9.8125 71.09375 
Q 15.4375 72.65625 20.34375 73.4375 
Q 25.25 74.21875 29.59375 74.21875 
Q 40.828125 74.21875 47.359375 69.109375 
Q 53.90625 64.015625 53.90625 55.328125 
Q 53.90625 49.265625 50.4375 45.09375 
Q 46.96875 40.921875 40.578125 39.3125 
z
" id="DejaVuSans-51"/>
      </defs>
      <g style="fill:#ffffff;" transform="translate(453.04299 456.678437)scale(0.1 -0.1)">
       <use xlink:href="#DejaVuSans-48"/>
       <use x="63.623047" xlink:href="#DejaVuSans-46"/>
       <use x="95.410156" xlink:href="#DejaVuSans-51"/>
      </g>
     </g>
    </g>
    <g id="xtick_5">
     <g id="line2d_9">
      <path clip-path="url(#peef9ae8d4f)" d="M 590.809244 442.08 
L 590.809244 7.2 
" style="fill:none;stroke:#ffffff;stroke-linecap:square;stroke-width:0.8;"/>
     </g>
     <g id="line2d_10">
      <g>
       <use style="fill:#ffffff;stroke:#ffffff;stroke-width:0.8;" x="590.809244" xlink:href="#m656297585b" y="442.08"/>
      </g>
     </g>
     <g id="text_5">
      <!-- 0.4 -->
      <defs>
       <path d="M 37.796875 64.3125 
L 12.890625 25.390625 
L 37.796875 25.390625 
z
M 35.203125 72.90625 
L 47.609375 72.90625 
L 47.609375 25.390625 
L 58.015625 25.390625 
L 58.015625 17.1875 
L 47.609375 17.1875 
L 47.609375 0 
L 37.796875 0 
L 37.796875 17.1875 
L 4.890625 17.1875 
L 4.890625 26.703125 
z
" id="DejaVuSans-52"/>
      </defs>
      <g style="fill:#ffffff;" transform="translate(582.857682 456.678437)scale(0.1 -0.1)">
       <use xlink:href="#DejaVuSans-48"/>
       <use x="63.623047" xlink:href="#DejaVuSans-46"/>
       <use x="95.410156" xlink:href="#DejaVuSans-52"/>
      </g>
     </g>
    </g>
    <g id="xtick_6">
     <g id="line2d_11">
      <path clip-path="url(#peef9ae8d4f)" d="M 720.623936 442.08 
L 720.623936 7.2 
" style="fill:none;stroke:#ffffff;stroke-linecap:square;stroke-width:0.8;"/>
     </g>
     <g id="line2d_12">
      <g>
       <use style="fill:#ffffff;stroke:#ffffff;stroke-width:0.8;" x="720.623936" xlink:href="#m656297585b" y="442.08"/>
      </g>
     </g>
     <g id="text_6">
      <!-- 0.5 -->
      <defs>
       <path d="M 10.796875 72.90625 
L 49.515625 72.90625 
L 49.515625 64.59375 
L 19.828125 64.59375 
L 19.828125 46.734375 
Q 21.96875 47.46875 24.109375 47.828125 
Q 26.265625 48.1875 28.421875 48.1875 
Q 40.625 48.1875 47.75 41.5 
Q 54.890625 34.8125 54.890625 23.390625 
Q 54.890625 11.625 47.5625 5.09375 
Q 40.234375 -1.421875 26.90625 -1.421875 
Q 22.3125 -1.421875 17.546875 -0.640625 
Q 12.796875 0.140625 7.71875 1.703125 
L 7.71875 11.625 
Q 12.109375 9.234375 16.796875 8.0625 
Q 21.484375 6.890625 26.703125 6.890625 
Q 35.15625 6.890625 40.078125 11.328125 
Q 45.015625 15.765625 45.015625 23.390625 
Q 45.015625 31 40.078125 35.4375 
Q 35.15625 39.890625 26.703125 39.890625 
Q 22.75 39.890625 18.8125 39.015625 
Q 14.890625 38.140625 10.796875 36.28125 
z
" id="DejaVuSans-53"/>
      </defs>
      <g style="fill:#ffffff;" transform="translate(712.672374 456.678437)scale(0.1 -0.1)">
       <use xlink:href="#DejaVuSans-48"/>
       <use x="63.623047" xlink:href="#DejaVuSans-46"/>
       <use x="95.410156" xlink:href="#DejaVuSans-53"/>
      </g>
     </g>
    </g>
    <g id="xtick_7">
     <g id="line2d_13">
      <path clip-path="url(#peef9ae8d4f)" d="M 850.438628 442.08 
L 850.438628 7.2 
" style="fill:none;stroke:#ffffff;stroke-linecap:square;stroke-width:0.8;"/>
     </g>
     <g id="line2d_14">
      <g>
       <use style="fill:#ffffff;stroke:#ffffff;stroke-width:0.8;" x="850.438628" xlink:href="#m656297585b" y="442.08"/>
      </g>
     </g>
     <g id="text_7">
      <!-- 0.6 -->
      <defs>
       <path d="M 33.015625 40.375 
Q 26.375 40.375 22.484375 35.828125 
Q 18.609375 31.296875 18.609375 23.390625 
Q 18.609375 15.53125 22.484375 10.953125 
Q 26.375 6.390625 33.015625 6.390625 
Q 39.65625 6.390625 43.53125 10.953125 
Q 47.40625 15.53125 47.40625 23.390625 
Q 47.40625 31.296875 43.53125 35.828125 
Q 39.65625 40.375 33.015625 40.375 
z
M 52.59375 71.296875 
L 52.59375 62.3125 
Q 48.875 64.0625 45.09375 64.984375 
Q 41.3125 65.921875 37.59375 65.921875 
Q 27.828125 65.921875 22.671875 59.328125 
Q 17.53125 52.734375 16.796875 39.40625 
Q 19.671875 43.65625 24.015625 45.921875 
Q 28.375 48.1875 33.59375 48.1875 
Q 44.578125 48.1875 50.953125 41.515625 
Q 57.328125 34.859375 57.328125 23.390625 
Q 57.328125 12.15625 50.6875 5.359375 
Q 44.046875 -1.421875 33.015625 -1.421875 
Q 20.359375 -1.421875 13.671875 8.265625 
Q 6.984375 17.96875 6.984375 36.375 
Q 6.984375 53.65625 15.1875 63.9375 
Q 23.390625 74.21875 37.203125 74.21875 
Q 40.921875 74.21875 44.703125 73.484375 
Q 48.484375 72.75 52.59375 71.296875 
z
" id="DejaVuSans-54"/>
      </defs>
      <g style="fill:#ffffff;" transform="translate(842.487065 456.678437)scale(0.1 -0.1)">
       <use xlink:href="#DejaVuSans-48"/>
       <use x="63.623047" xlink:href="#DejaVuSans-46"/>
       <use x="95.410156" xlink:href="#DejaVuSans-54"/>
      </g>
     </g>
    </g>
   </g>
   <g id="matplotlib.axis_2">
    <g id="ytick_1">
     <g id="line2d_15">
      <path clip-path="url(#peef9ae8d4f)" d="M 26.925 442.08 
L 919.725 442.08 
" style="fill:none;stroke:#ffffff;stroke-linecap:square;stroke-width:0.8;"/>
     </g>
     <g id="line2d_16">
      <defs>
       <path d="M 0 0 
L -3.5 0 
" id="md82d3d0a83" style="stroke:#ffffff;stroke-width:0.8;"/>
      </defs>
      <g>
       <use style="fill:#ffffff;stroke:#ffffff;stroke-width:0.8;" x="26.925" xlink:href="#md82d3d0a83" y="442.08"/>
      </g>
     </g>
     <g id="text_8">
      <!-- 0 -->
      <g style="fill:#ffffff;" transform="translate(13.5625 445.879219)scale(0.1 -0.1)">
       <use xlink:href="#DejaVuSans-48"/>
      </g>
     </g>
    </g>
    <g id="ytick_2">
     <g id="line2d_17">
      <path clip-path="url(#peef9ae8d4f)" d="M 26.925 377.855598 
L 919.725 377.855598 
" style="fill:none;stroke:#ffffff;stroke-linecap:square;stroke-width:0.8;"/>
     </g>
     <g id="line2d_18">
      <g>
       <use style="fill:#ffffff;stroke:#ffffff;stroke-width:0.8;" x="26.925" xlink:href="#md82d3d0a83" y="377.855598"/>
      </g>
     </g>
     <g id="text_9">
      <!-- 10 -->
      <g style="fill:#ffffff;" transform="translate(7.2 381.654816)scale(0.1 -0.1)">
       <use xlink:href="#DejaVuSans-49"/>
       <use x="63.623047" xlink:href="#DejaVuSans-48"/>
      </g>
     </g>
    </g>
    <g id="ytick_3">
     <g id="line2d_19">
      <path clip-path="url(#peef9ae8d4f)" d="M 26.925 313.631195 
L 919.725 313.631195 
" style="fill:none;stroke:#ffffff;stroke-linecap:square;stroke-width:0.8;"/>
     </g>
     <g id="line2d_20">
      <g>
       <use style="fill:#ffffff;stroke:#ffffff;stroke-width:0.8;" x="26.925" xlink:href="#md82d3d0a83" y="313.631195"/>
      </g>
     </g>
     <g id="text_10">
      <!-- 20 -->
      <g style="fill:#ffffff;" transform="translate(7.2 317.430414)scale(0.1 -0.1)">
       <use xlink:href="#DejaVuSans-50"/>
       <use x="63.623047" xlink:href="#DejaVuSans-48"/>
      </g>
     </g>
    </g>
    <g id="ytick_4">
     <g id="line2d_21">
      <path clip-path="url(#peef9ae8d4f)" d="M 26.925 249.406793 
L 919.725 249.406793 
" style="fill:none;stroke:#ffffff;stroke-linecap:square;stroke-width:0.8;"/>
     </g>
     <g id="line2d_22">
      <g>
       <use style="fill:#ffffff;stroke:#ffffff;stroke-width:0.8;" x="26.925" xlink:href="#md82d3d0a83" y="249.406793"/>
      </g>
     </g>
     <g id="text_11">
      <!-- 30 -->
      <g style="fill:#ffffff;" transform="translate(7.2 253.206012)scale(0.1 -0.1)">
       <use xlink:href="#DejaVuSans-51"/>
       <use x="63.623047" xlink:href="#DejaVuSans-48"/>
      </g>
     </g>
    </g>
    <g id="ytick_5">
     <g id="line2d_23">
      <path clip-path="url(#peef9ae8d4f)" d="M 26.925 185.182391 
L 919.725 185.182391 
" style="fill:none;stroke:#ffffff;stroke-linecap:square;stroke-width:0.8;"/>
     </g>
     <g id="line2d_24">
      <g>
       <use style="fill:#ffffff;stroke:#ffffff;stroke-width:0.8;" x="26.925" xlink:href="#md82d3d0a83" y="185.182391"/>
      </g>
     </g>
     <g id="text_12">
      <!-- 40 -->
      <g style="fill:#ffffff;" transform="translate(7.2 188.98161)scale(0.1 -0.1)">
       <use xlink:href="#DejaVuSans-52"/>
       <use x="63.623047" xlink:href="#DejaVuSans-48"/>
      </g>
     </g>
    </g>
    <g id="ytick_6">
     <g id="line2d_25">
      <path clip-path="url(#peef9ae8d4f)" d="M 26.925 120.957989 
L 919.725 120.957989 
" style="fill:none;stroke:#ffffff;stroke-linecap:square;stroke-width:0.8;"/>
     </g>
     <g id="line2d_26">
      <g>
       <use style="fill:#ffffff;stroke:#ffffff;stroke-width:0.8;" x="26.925" xlink:href="#md82d3d0a83" y="120.957989"/>
      </g>
     </g>
     <g id="text_13">
      <!-- 50 -->
      <g style="fill:#ffffff;" transform="translate(7.2 124.757207)scale(0.1 -0.1)">
       <use xlink:href="#DejaVuSans-53"/>
       <use x="63.623047" xlink:href="#DejaVuSans-48"/>
      </g>
     </g>
    </g>
    <g id="ytick_7">
     <g id="line2d_27">
      <path clip-path="url(#peef9ae8d4f)" d="M 26.925 56.733586 
L 919.725 56.733586 
" style="fill:none;stroke:#ffffff;stroke-linecap:square;stroke-width:0.8;"/>
     </g>
     <g id="line2d_28">
      <g>
       <use style="fill:#ffffff;stroke:#ffffff;stroke-width:0.8;" x="26.925" xlink:href="#md82d3d0a83" y="56.733586"/>
      </g>
     </g>
     <g id="text_14">
      <!-- 60 -->
      <g style="fill:#ffffff;" transform="translate(7.2 60.532805)scale(0.1 -0.1)">
       <use xlink:href="#DejaVuSans-54"/>
       <use x="63.623047" xlink:href="#DejaVuSans-48"/>
      </g>
     </g>
    </g>
   </g>
   <g id="line2d_29">
    <path clip-path="url(#peef9ae8d4f)" d="M 67.506818 440.930044 
L 73.897656 442.08 
L 86.679331 351.154998 
L 93.070168 416.878824 
L 99.461006 417.752209 
L 105.851843 435.491221 
L 112.242681 434.383853 
L 118.633518 438.128125 
L 125.024356 434.09049 
L 131.415193 435.496854 
L 137.806031 432.734381 
L 144.196868 431.957019 
L 150.587706 425.862948 
L 156.978543 429.045871 
L 163.369381 431.090502 
L 169.760218 437.277906 
L 176.151056 438.364278 
L 182.541893 441.370053 
L 188.932731 440.747393 
L 195.323568 442.08 
L 201.714406 441.768276 
L 208.105243 442.08 
L 214.496081 441.875443 
L 220.886918 442.08 
L 227.277756 441.913739 
L 233.668593 442.08 
L 240.059431 441.9434 
L 246.450268 442.08 
L 252.841106 441.965191 
L 259.231943 442.08 
L 265.622781 441.981559 
L 272.013618 442.08 
L 278.404456 441.994129 
L 284.795293 442.08 
L 291.186131 442.003941 
L 297.576969 442.08 
L 303.967806 442.011674 
L 310.358644 442.08 
L 316.749481 442.017767 
L 323.140319 442.08 
L 329.531156 442.022492 
L 335.921994 442.08 
L 355.094506 442.028134 
L 374.267019 442.08 
L 393.439531 441.978044 
L 399.830369 442.079222 
L 406.221206 441.915621 
L 412.612044 442.08 
L 419.002881 441.930031 
L 425.393719 442.08 
L 431.784556 441.862768 
L 438.175394 442.012621 
L 444.566231 441.788805 
L 450.957069 441.928538 
L 457.347906 441.802611 
L 463.738744 441.889559 
L 470.129581 441.45445 
L 476.520419 441.914822 
L 482.911256 440.677791 
L 489.302094 440.900377 
L 495.692931 440.921241 
L 502.083769 440.403738 
L 508.474606 439.579421 
L 514.865444 439.610418 
L 521.256281 438.900158 
L 527.647119 438.469022 
L 534.037956 438.719288 
L 540.428794 437.690246 
L 546.819631 437.524232 
L 553.210469 437.634522 
L 559.601306 440.095732 
L 565.992144 439.655395 
L 572.382981 440.294061 
L 578.773819 440.508657 
L 585.164656 441.462834 
L 591.555494 440.773531 
L 597.946331 441.378204 
L 604.337169 440.776266 
L 610.728006 439.84698 
L 617.118844 440.514788 
L 623.509681 440.16154 
L 636.291356 438.466612 
L 642.682194 439.579506 
L 649.073031 439.470583 
L 655.463869 439.081248 
L 661.854707 440.288543 
L 668.245544 439.996258 
L 674.636382 441.192107 
L 681.027219 441.323769 
L 687.418057 440.824083 
L 693.808894 440.569061 
L 700.199732 441.314454 
L 706.590569 440.855776 
L 712.981407 440.860421 
L 719.372244 441.258446 
L 725.763082 441.206001 
L 732.153919 441.492605 
L 744.935594 441.079619 
L 751.326432 441.309996 
L 757.717269 441.675786 
L 796.062294 442.08 
L 802.453132 441.778329 
L 808.843969 442.019433 
L 815.234807 441.830351 
L 821.625644 442.08 
L 828.016482 441.815119 
L 834.407319 442.08 
L 840.798157 441.918252 
L 847.188994 442.08 
L 853.579832 441.910372 
L 859.970669 442.08 
L 866.361507 441.903434 
L 879.143182 442.08 
L 879.143182 442.08 
" style="fill:none;stroke:#8dd3c7;stroke-linecap:square;stroke-width:1.5;"/>
   </g>
   <g id="patch_53">
    <path d="M 26.925 442.08 
L 26.925 7.2 
" style="fill:none;stroke:#ffffff;stroke-linecap:square;stroke-linejoin:miter;stroke-width:0.8;"/>
   </g>
   <g id="patch_54">
    <path d="M 919.725 442.08 
L 919.725 7.2 
" style="fill:none;stroke:#ffffff;stroke-linecap:square;stroke-linejoin:miter;stroke-width:0.8;"/>
   </g>
   <g id="patch_55">
    <path d="M 26.925 442.08 
L 919.725 442.08 
" style="fill:none;stroke:#ffffff;stroke-linecap:square;stroke-linejoin:miter;stroke-width:0.8;"/>
   </g>
   <g id="patch_56">
    <path d="M 26.925 7.2 
L 919.725 7.2 
" style="fill:none;stroke:#ffffff;stroke-linecap:square;stroke-linejoin:miter;stroke-width:0.8;"/>
   </g>
  </g>
 </g>
 <defs>
  <clipPath id="peef9ae8d4f">
   <rect height="434.88" width="892.8" x="26.925" y="7.2"/>
  </clipPath>
 </defs>
</svg>
