<?xml version="1.0" encoding="utf-8" standalone="no"?>
<!DOCTYPE svg PUBLIC "-//W3C//DTD SVG 1.1//EN"
  "http://www.w3.org/Graphics/SVG/1.1/DTD/svg11.dtd">
<!-- Created with matplotlib (https://matplotlib.org/) -->
<svg height="465.958125pt" version="1.1" viewBox="0 0 930.103125 465.958125" width="930.103125pt" xmlns="http://www.w3.org/2000/svg" xmlns:xlink="http://www.w3.org/1999/xlink">
 <defs>
  <style type="text/css">
*{stroke-linecap:butt;stroke-linejoin:round;}
  </style>
 </defs>
 <g id="figure_1">
  <g id="patch_1">
   <path d="M 0 465.958125 
L 930.103125 465.958125 
L 930.103125 0 
L 0 0 
z
"/>
  </g>
  <g id="axes_1">
   <g id="patch_2">
    <path d="M 30.103125 442.08 
L 922.903125 442.08 
L 922.903125 7.2 
L 30.103125 7.2 
z
"/>
   </g>
   <g id="patch_3">
    <path clip-path="url(#p626f456e60)" d="M 124.630485 442.08 
L 138.705391 442.08 
L 138.705391 242.524675 
L 124.630485 242.524675 
z
" style="fill:#8dd3c7;opacity:0.4;"/>
   </g>
   <g id="patch_4">
    <path clip-path="url(#p626f456e60)" d="M 138.705391 442.08 
L 152.780297 442.08 
L 152.780297 104.467532 
L 138.705391 104.467532 
z
" style="fill:#8dd3c7;opacity:0.4;"/>
   </g>
   <g id="patch_5">
    <path clip-path="url(#p626f456e60)" d="M 152.780297 442.08 
L 166.855202 442.08 
L 166.855202 90.243463 
L 152.780297 90.243463 
z
" style="fill:#8dd3c7;opacity:0.4;"/>
   </g>
   <g id="patch_6">
    <path clip-path="url(#p626f456e60)" d="M 166.855202 442.08 
L 180.930108 442.08 
L 180.930108 63.05039 
L 166.855202 63.05039 
z
" style="fill:#8dd3c7;opacity:0.4;"/>
   </g>
   <g id="patch_7">
    <path clip-path="url(#p626f456e60)" d="M 180.930108 442.08 
L 195.005013 442.08 
L 195.005013 42.132641 
L 180.930108 42.132641 
z
" style="fill:#8dd3c7;opacity:0.4;"/>
   </g>
   <g id="patch_8">
    <path clip-path="url(#p626f456e60)" d="M 195.005013 442.08 
L 209.079919 442.08 
L 209.079919 27.908571 
L 195.005013 27.908571 
z
" style="fill:#8dd3c7;opacity:0.4;"/>
   </g>
   <g id="patch_9">
    <path clip-path="url(#p626f456e60)" d="M 209.079919 442.08 
L 223.154824 442.08 
L 223.154824 59.285195 
L 209.079919 59.285195 
z
" style="fill:#8dd3c7;opacity:0.4;"/>
   </g>
   <g id="patch_10">
    <path clip-path="url(#p626f456e60)" d="M 223.154824 442.08 
L 237.22973 442.08 
L 237.22973 40.040866 
L 223.154824 40.040866 
z
" style="fill:#8dd3c7;opacity:0.4;"/>
   </g>
   <g id="patch_11">
    <path clip-path="url(#p626f456e60)" d="M 237.22973 442.08 
L 251.304636 442.08 
L 251.304636 106.140952 
L 237.22973 106.140952 
z
" style="fill:#8dd3c7;opacity:0.4;"/>
   </g>
   <g id="patch_12">
    <path clip-path="url(#p626f456e60)" d="M 251.304636 442.08 
L 265.379541 442.08 
L 265.379541 90.661818 
L 251.304636 90.661818 
z
" style="fill:#8dd3c7;opacity:0.4;"/>
   </g>
   <g id="patch_13">
    <path clip-path="url(#p626f456e60)" d="M 265.379541 442.08 
L 279.454447 442.08 
L 279.454447 126.221991 
L 265.379541 126.221991 
z
" style="fill:#8dd3c7;opacity:0.4;"/>
   </g>
   <g id="patch_14">
    <path clip-path="url(#p626f456e60)" d="M 279.454447 442.08 
L 293.529352 442.08 
L 293.529352 147.558095 
L 279.454447 147.558095 
z
" style="fill:#8dd3c7;opacity:0.4;"/>
   </g>
   <g id="patch_15">
    <path clip-path="url(#p626f456e60)" d="M 293.529352 442.08 
L 307.604258 442.08 
L 307.604258 150.068225 
L 293.529352 150.068225 
z
" style="fill:#8dd3c7;opacity:0.4;"/>
   </g>
   <g id="patch_16">
    <path clip-path="url(#p626f456e60)" d="M 307.604258 442.08 
L 321.679164 442.08 
L 321.679164 171.404329 
L 307.604258 171.404329 
z
" style="fill:#8dd3c7;opacity:0.4;"/>
   </g>
   <g id="patch_17">
    <path clip-path="url(#p626f456e60)" d="M 321.679164 442.08 
L 335.754069 442.08 
L 335.754069 188.138528 
L 321.679164 188.138528 
z
" style="fill:#8dd3c7;opacity:0.4;"/>
   </g>
   <g id="patch_18">
    <path clip-path="url(#p626f456e60)" d="M 335.754069 442.08 
L 349.828975 442.08 
L 349.828975 214.076537 
L 335.754069 214.076537 
z
" style="fill:#8dd3c7;opacity:0.4;"/>
   </g>
   <g id="patch_19">
    <path clip-path="url(#p626f456e60)" d="M 349.828975 442.08 
L 363.90388 442.08 
L 363.90388 236.667706 
L 349.828975 236.667706 
z
" style="fill:#8dd3c7;opacity:0.4;"/>
   </g>
   <g id="patch_20">
    <path clip-path="url(#p626f456e60)" d="M 363.90388 442.08 
L 377.978786 442.08 
L 377.978786 250.055065 
L 363.90388 250.055065 
z
" style="fill:#8dd3c7;opacity:0.4;"/>
   </g>
   <g id="patch_21">
    <path clip-path="url(#p626f456e60)" d="M 377.978786 442.08 
L 392.053691 442.08 
L 392.053691 274.738009 
L 377.978786 274.738009 
z
" style="fill:#8dd3c7;opacity:0.4;"/>
   </g>
   <g id="patch_22">
    <path clip-path="url(#p626f456e60)" d="M 392.053691 442.08 
L 406.128597 442.08 
L 406.128597 290.635498 
L 392.053691 290.635498 
z
" style="fill:#8dd3c7;opacity:0.4;"/>
   </g>
   <g id="patch_23">
    <path clip-path="url(#p626f456e60)" d="M 406.128597 442.08 
L 420.203503 442.08 
L 420.203503 303.186147 
L 406.128597 303.186147 
z
" style="fill:#8dd3c7;opacity:0.4;"/>
   </g>
   <g id="patch_24">
    <path clip-path="url(#p626f456e60)" d="M 420.203503 442.08 
L 434.278408 442.08 
L 434.278408 304.022857 
L 420.203503 304.022857 
z
" style="fill:#8dd3c7;opacity:0.4;"/>
   </g>
   <g id="patch_25">
    <path clip-path="url(#p626f456e60)" d="M 434.278408 442.08 
L 448.353314 442.08 
L 448.353314 330.797576 
L 434.278408 330.797576 
z
" style="fill:#8dd3c7;opacity:0.4;"/>
   </g>
   <g id="patch_26">
    <path clip-path="url(#p626f456e60)" d="M 448.353314 442.08 
L 462.428219 442.08 
L 462.428219 341.674805 
L 448.353314 341.674805 
z
" style="fill:#8dd3c7;opacity:0.4;"/>
   </g>
   <g id="patch_27">
    <path clip-path="url(#p626f456e60)" d="M 462.428219 442.08 
L 476.503125 442.08 
L 476.503125 343.348225 
L 462.428219 343.348225 
z
" style="fill:#8dd3c7;opacity:0.4;"/>
   </g>
   <g id="patch_28">
    <path clip-path="url(#p626f456e60)" d="M 476.503125 442.08 
L 490.578031 442.08 
L 490.578031 362.174199 
L 476.503125 362.174199 
z
" style="fill:#8dd3c7;opacity:0.4;"/>
   </g>
   <g id="patch_29">
    <path clip-path="url(#p626f456e60)" d="M 490.578031 442.08 
L 504.652936 442.08 
L 504.652936 360.082424 
L 490.578031 360.082424 
z
" style="fill:#8dd3c7;opacity:0.4;"/>
   </g>
   <g id="patch_30">
    <path clip-path="url(#p626f456e60)" d="M 504.652936 442.08 
L 518.727842 442.08 
L 518.727842 374.306494 
L 504.652936 374.306494 
z
" style="fill:#8dd3c7;opacity:0.4;"/>
   </g>
   <g id="patch_31">
    <path clip-path="url(#p626f456e60)" d="M 518.727842 442.08 
L 532.802747 442.08 
L 532.802747 383.510303 
L 518.727842 383.510303 
z
" style="fill:#8dd3c7;opacity:0.4;"/>
   </g>
   <g id="patch_32">
    <path clip-path="url(#p626f456e60)" d="M 532.802747 442.08 
L 546.877653 442.08 
L 546.877653 392.714113 
L 532.802747 392.714113 
z
" style="fill:#8dd3c7;opacity:0.4;"/>
   </g>
   <g id="patch_33">
    <path clip-path="url(#p626f456e60)" d="M 546.877653 442.08 
L 560.952559 442.08 
L 560.952559 402.754632 
L 546.877653 402.754632 
z
" style="fill:#8dd3c7;opacity:0.4;"/>
   </g>
   <g id="patch_34">
    <path clip-path="url(#p626f456e60)" d="M 560.952559 442.08 
L 575.027464 442.08 
L 575.027464 396.060952 
L 560.952559 396.060952 
z
" style="fill:#8dd3c7;opacity:0.4;"/>
   </g>
   <g id="patch_35">
    <path clip-path="url(#p626f456e60)" d="M 575.027464 442.08 
L 589.10237 442.08 
L 589.10237 411.958442 
L 575.027464 411.958442 
z
" style="fill:#8dd3c7;opacity:0.4;"/>
   </g>
   <g id="patch_36">
    <path clip-path="url(#p626f456e60)" d="M 589.10237 442.08 
L 603.177275 442.08 
L 603.177275 415.305281 
L 589.10237 415.305281 
z
" style="fill:#8dd3c7;opacity:0.4;"/>
   </g>
   <g id="patch_37">
    <path clip-path="url(#p626f456e60)" d="M 603.177275 442.08 
L 617.252181 442.08 
L 617.252181 421.580606 
L 603.177275 421.580606 
z
" style="fill:#8dd3c7;opacity:0.4;"/>
   </g>
   <g id="patch_38">
    <path clip-path="url(#p626f456e60)" d="M 617.252181 442.08 
L 631.327086 442.08 
L 631.327086 425.345801 
L 617.252181 425.345801 
z
" style="fill:#8dd3c7;opacity:0.4;"/>
   </g>
   <g id="patch_39">
    <path clip-path="url(#p626f456e60)" d="M 631.327086 442.08 
L 645.401992 442.08 
L 645.401992 424.509091 
L 631.327086 424.509091 
z
" style="fill:#8dd3c7;opacity:0.4;"/>
   </g>
   <g id="patch_40">
    <path clip-path="url(#p626f456e60)" d="M 645.401992 442.08 
L 659.476898 442.08 
L 659.476898 427.019221 
L 645.401992 427.019221 
z
" style="fill:#8dd3c7;opacity:0.4;"/>
   </g>
   <g id="patch_41">
    <path clip-path="url(#p626f456e60)" d="M 659.476898 442.08 
L 673.551803 442.08 
L 673.551803 428.274286 
L 659.476898 428.274286 
z
" style="fill:#8dd3c7;opacity:0.4;"/>
   </g>
   <g id="patch_42">
    <path clip-path="url(#p626f456e60)" d="M 673.551803 442.08 
L 687.626709 442.08 
L 687.626709 432.039481 
L 673.551803 432.039481 
z
" style="fill:#8dd3c7;opacity:0.4;"/>
   </g>
   <g id="patch_43">
    <path clip-path="url(#p626f456e60)" d="M 687.626709 442.08 
L 701.701614 442.08 
L 701.701614 433.294545 
L 687.626709 433.294545 
z
" style="fill:#8dd3c7;opacity:0.4;"/>
   </g>
   <g id="patch_44">
    <path clip-path="url(#p626f456e60)" d="M 701.701614 442.08 
L 715.77652 442.08 
L 715.77652 436.22303 
L 701.701614 436.22303 
z
" style="fill:#8dd3c7;opacity:0.4;"/>
   </g>
   <g id="patch_45">
    <path clip-path="url(#p626f456e60)" d="M 715.77652 442.08 
L 729.851426 442.08 
L 729.851426 437.478095 
L 715.77652 437.478095 
z
" style="fill:#8dd3c7;opacity:0.4;"/>
   </g>
   <g id="patch_46">
    <path clip-path="url(#p626f456e60)" d="M 729.851426 442.08 
L 743.926331 442.08 
L 743.926331 437.478095 
L 729.851426 437.478095 
z
" style="fill:#8dd3c7;opacity:0.4;"/>
   </g>
   <g id="patch_47">
    <path clip-path="url(#p626f456e60)" d="M 743.926331 442.08 
L 758.001237 442.08 
L 758.001237 436.641385 
L 743.926331 436.641385 
z
" style="fill:#8dd3c7;opacity:0.4;"/>
   </g>
   <g id="patch_48">
    <path clip-path="url(#p626f456e60)" d="M 758.001237 442.08 
L 772.076142 442.08 
L 772.076142 438.73316 
L 758.001237 438.73316 
z
" style="fill:#8dd3c7;opacity:0.4;"/>
   </g>
   <g id="patch_49">
    <path clip-path="url(#p626f456e60)" d="M 772.076142 442.08 
L 786.151048 442.08 
L 786.151048 438.73316 
L 772.076142 438.73316 
z
" style="fill:#8dd3c7;opacity:0.4;"/>
   </g>
   <g id="patch_50">
    <path clip-path="url(#p626f456e60)" d="M 786.151048 442.08 
L 800.225953 442.08 
L 800.225953 439.988225 
L 786.151048 439.988225 
z
" style="fill:#8dd3c7;opacity:0.4;"/>
   </g>
   <g id="patch_51">
    <path clip-path="url(#p626f456e60)" d="M 800.225953 442.08 
L 814.300859 442.08 
L 814.300859 439.988225 
L 800.225953 439.988225 
z
" style="fill:#8dd3c7;opacity:0.4;"/>
   </g>
   <g id="patch_52">
    <path clip-path="url(#p626f456e60)" d="M 814.300859 442.08 
L 828.375765 442.08 
L 828.375765 427.437576 
L 814.300859 427.437576 
z
" style="fill:#8dd3c7;opacity:0.4;"/>
   </g>
   <g id="matplotlib.axis_1">
    <g id="xtick_1">
     <g id="line2d_1">
      <path clip-path="url(#p626f456e60)" d="M 124.630485 442.08 
L 124.630485 7.2 
" style="fill:none;stroke:#ffffff;stroke-linecap:square;stroke-width:0.8;"/>
     </g>
     <g id="line2d_2">
      <defs>
       <path d="M 0 0 
L 0 3.5 
" id="mb358eb903e" style="stroke:#ffffff;stroke-width:0.8;"/>
      </defs>
      <g>
       <use style="fill:#ffffff;stroke:#ffffff;stroke-width:0.8;" x="124.630485" xlink:href="#mb358eb903e" y="442.08"/>
      </g>
     </g>
     <g id="text_1">
      <!-- 0.0 -->
      <defs>
       <path d="M 31.78125 66.40625 
Q 24.171875 66.40625 20.328125 58.90625 
Q 16.5 51.421875 16.5 36.375 
Q 16.5 21.390625 20.328125 13.890625 
Q 24.171875 6.390625 31.78125 6.390625 
Q 39.453125 6.390625 43.28125 13.890625 
Q 47.125 21.390625 47.125 36.375 
Q 47.125 51.421875 43.28125 58.90625 
Q 39.453125 66.40625 31.78125 66.40625 
z
M 31.78125 74.21875 
Q 44.046875 74.21875 50.515625 64.515625 
Q 56.984375 54.828125 56.984375 36.375 
Q 56.984375 17.96875 50.515625 8.265625 
Q 44.046875 -1.421875 31.78125 -1.421875 
Q 19.53125 -1.421875 13.0625 8.265625 
Q 6.59375 17.96875 6.59375 36.375 
Q 6.59375 54.828125 13.0625 64.515625 
Q 19.53125 74.21875 31.78125 74.21875 
z
" id="DejaVuSans-48"/>
       <path d="M 10.6875 12.40625 
L 21 12.40625 
L 21 0 
L 10.6875 0 
z
" id="DejaVuSans-46"/>
      </defs>
      <g style="fill:#ffffff;" transform="translate(116.678923 456.678437)scale(0.1 -0.1)">
       <use xlink:href="#DejaVuSans-48"/>
       <use x="63.623047" xlink:href="#DejaVuSans-46"/>
       <use x="95.410156" xlink:href="#DejaVuSans-48"/>
      </g>
     </g>
    </g>
    <g id="xtick_2">
     <g id="line2d_3">
      <path clip-path="url(#p626f456e60)" d="M 265.379541 442.08 
L 265.379541 7.2 
" style="fill:none;stroke:#ffffff;stroke-linecap:square;stroke-width:0.8;"/>
     </g>
     <g id="line2d_4">
      <g>
       <use style="fill:#ffffff;stroke:#ffffff;stroke-width:0.8;" x="265.379541" xlink:href="#mb358eb903e" y="442.08"/>
      </g>
     </g>
     <g id="text_2">
      <!-- 0.2 -->
      <defs>
       <path d="M 19.1875 8.296875 
L 53.609375 8.296875 
L 53.609375 0 
L 7.328125 0 
L 7.328125 8.296875 
Q 12.9375 14.109375 22.625 23.890625 
Q 32.328125 33.6875 34.8125 36.53125 
Q 39.546875 41.84375 41.421875 45.53125 
Q 43.3125 49.21875 43.3125 52.78125 
Q 43.3125 58.59375 39.234375 62.25 
Q 35.15625 65.921875 28.609375 65.921875 
Q 23.96875 65.921875 18.8125 64.3125 
Q 13.671875 62.703125 7.8125 59.421875 
L 7.8125 69.390625 
Q 13.765625 71.78125 18.9375 73 
Q 24.125 74.21875 28.421875 74.21875 
Q 39.75 74.21875 46.484375 68.546875 
Q 53.21875 62.890625 53.21875 53.421875 
Q 53.21875 48.921875 51.53125 44.890625 
Q 49.859375 40.875 45.40625 35.40625 
Q 44.1875 33.984375 37.640625 27.21875 
Q 31.109375 20.453125 19.1875 8.296875 
z
" id="DejaVuSans-50"/>
      </defs>
      <g style="fill:#ffffff;" transform="translate(257.427979 456.678437)scale(0.1 -0.1)">
       <use xlink:href="#DejaVuSans-48"/>
       <use x="63.623047" xlink:href="#DejaVuSans-46"/>
       <use x="95.410156" xlink:href="#DejaVuSans-50"/>
      </g>
     </g>
    </g>
    <g id="xtick_3">
     <g id="line2d_5">
      <path clip-path="url(#p626f456e60)" d="M 406.128597 442.08 
L 406.128597 7.2 
" style="fill:none;stroke:#ffffff;stroke-linecap:square;stroke-width:0.8;"/>
     </g>
     <g id="line2d_6">
      <g>
       <use style="fill:#ffffff;stroke:#ffffff;stroke-width:0.8;" x="406.128597" xlink:href="#mb358eb903e" y="442.08"/>
      </g>
     </g>
     <g id="text_3">
      <!-- 0.4 -->
      <defs>
       <path d="M 37.796875 64.3125 
L 12.890625 25.390625 
L 37.796875 25.390625 
z
M 35.203125 72.90625 
L 47.609375 72.90625 
L 47.609375 25.390625 
L 58.015625 25.390625 
L 58.015625 17.1875 
L 47.609375 17.1875 
L 47.609375 0 
L 37.796875 0 
L 37.796875 17.1875 
L 4.890625 17.1875 
L 4.890625 26.703125 
z
" id="DejaVuSans-52"/>
      </defs>
      <g style="fill:#ffffff;" transform="translate(398.177035 456.678437)scale(0.1 -0.1)">
       <use xlink:href="#DejaVuSans-48"/>
       <use x="63.623047" xlink:href="#DejaVuSans-46"/>
       <use x="95.410156" xlink:href="#DejaVuSans-52"/>
      </g>
     </g>
    </g>
    <g id="xtick_4">
     <g id="line2d_7">
      <path clip-path="url(#p626f456e60)" d="M 546.877653 442.08 
L 546.877653 7.2 
" style="fill:none;stroke:#ffffff;stroke-linecap:square;stroke-width:0.8;"/>
     </g>
     <g id="line2d_8">
      <g>
       <use style="fill:#ffffff;stroke:#ffffff;stroke-width:0.8;" x="546.877653" xlink:href="#mb358eb903e" y="442.08"/>
      </g>
     </g>
     <g id="text_4">
      <!-- 0.6 -->
      <defs>
       <path d="M 33.015625 40.375 
Q 26.375 40.375 22.484375 35.828125 
Q 18.609375 31.296875 18.609375 23.390625 
Q 18.609375 15.53125 22.484375 10.953125 
Q 26.375 6.390625 33.015625 6.390625 
Q 39.65625 6.390625 43.53125 10.953125 
Q 47.40625 15.53125 47.40625 23.390625 
Q 47.40625 31.296875 43.53125 35.828125 
Q 39.65625 40.375 33.015625 40.375 
z
M 52.59375 71.296875 
L 52.59375 62.3125 
Q 48.875 64.0625 45.09375 64.984375 
Q 41.3125 65.921875 37.59375 65.921875 
Q 27.828125 65.921875 22.671875 59.328125 
Q 17.53125 52.734375 16.796875 39.40625 
Q 19.671875 43.65625 24.015625 45.921875 
Q 28.375 48.1875 33.59375 48.1875 
Q 44.578125 48.1875 50.953125 41.515625 
Q 57.328125 34.859375 57.328125 23.390625 
Q 57.328125 12.15625 50.6875 5.359375 
Q 44.046875 -1.421875 33.015625 -1.421875 
Q 20.359375 -1.421875 13.671875 8.265625 
Q 6.984375 17.96875 6.984375 36.375 
Q 6.984375 53.65625 15.1875 63.9375 
Q 23.390625 74.21875 37.203125 74.21875 
Q 40.921875 74.21875 44.703125 73.484375 
Q 48.484375 72.75 52.59375 71.296875 
z
" id="DejaVuSans-54"/>
      </defs>
      <g style="fill:#ffffff;" transform="translate(538.92609 456.678437)scale(0.1 -0.1)">
       <use xlink:href="#DejaVuSans-48"/>
       <use x="63.623047" xlink:href="#DejaVuSans-46"/>
       <use x="95.410156" xlink:href="#DejaVuSans-54"/>
      </g>
     </g>
    </g>
    <g id="xtick_5">
     <g id="line2d_9">
      <path clip-path="url(#p626f456e60)" d="M 687.626709 442.08 
L 687.626709 7.2 
" style="fill:none;stroke:#ffffff;stroke-linecap:square;stroke-width:0.8;"/>
     </g>
     <g id="line2d_10">
      <g>
       <use style="fill:#ffffff;stroke:#ffffff;stroke-width:0.8;" x="687.626709" xlink:href="#mb358eb903e" y="442.08"/>
      </g>
     </g>
     <g id="text_5">
      <!-- 0.8 -->
      <defs>
       <path d="M 31.78125 34.625 
Q 24.75 34.625 20.71875 30.859375 
Q 16.703125 27.09375 16.703125 20.515625 
Q 16.703125 13.921875 20.71875 10.15625 
Q 24.75 6.390625 31.78125 6.390625 
Q 38.8125 6.390625 42.859375 10.171875 
Q 46.921875 13.96875 46.921875 20.515625 
Q 46.921875 27.09375 42.890625 30.859375 
Q 38.875 34.625 31.78125 34.625 
z
M 21.921875 38.8125 
Q 15.578125 40.375 12.03125 44.71875 
Q 8.5 49.078125 8.5 55.328125 
Q 8.5 64.0625 14.71875 69.140625 
Q 20.953125 74.21875 31.78125 74.21875 
Q 42.671875 74.21875 48.875 69.140625 
Q 55.078125 64.0625 55.078125 55.328125 
Q 55.078125 49.078125 51.53125 44.71875 
Q 48 40.375 41.703125 38.8125 
Q 48.828125 37.15625 52.796875 32.3125 
Q 56.78125 27.484375 56.78125 20.515625 
Q 56.78125 9.90625 50.3125 4.234375 
Q 43.84375 -1.421875 31.78125 -1.421875 
Q 19.734375 -1.421875 13.25 4.234375 
Q 6.78125 9.90625 6.78125 20.515625 
Q 6.78125 27.484375 10.78125 32.3125 
Q 14.796875 37.15625 21.921875 38.8125 
z
M 18.3125 54.390625 
Q 18.3125 48.734375 21.84375 45.5625 
Q 25.390625 42.390625 31.78125 42.390625 
Q 38.140625 42.390625 41.71875 45.5625 
Q 45.3125 48.734375 45.3125 54.390625 
Q 45.3125 60.0625 41.71875 63.234375 
Q 38.140625 66.40625 31.78125 66.40625 
Q 25.390625 66.40625 21.84375 63.234375 
Q 18.3125 60.0625 18.3125 54.390625 
z
" id="DejaVuSans-56"/>
      </defs>
      <g style="fill:#ffffff;" transform="translate(679.675146 456.678437)scale(0.1 -0.1)">
       <use xlink:href="#DejaVuSans-48"/>
       <use x="63.623047" xlink:href="#DejaVuSans-46"/>
       <use x="95.410156" xlink:href="#DejaVuSans-56"/>
      </g>
     </g>
    </g>
    <g id="xtick_6">
     <g id="line2d_11">
      <path clip-path="url(#p626f456e60)" d="M 828.375765 442.08 
L 828.375765 7.2 
" style="fill:none;stroke:#ffffff;stroke-linecap:square;stroke-width:0.8;"/>
     </g>
     <g id="line2d_12">
      <g>
       <use style="fill:#ffffff;stroke:#ffffff;stroke-width:0.8;" x="828.375765" xlink:href="#mb358eb903e" y="442.08"/>
      </g>
     </g>
     <g id="text_6">
      <!-- 1.0 -->
      <defs>
       <path d="M 12.40625 8.296875 
L 28.515625 8.296875 
L 28.515625 63.921875 
L 10.984375 60.40625 
L 10.984375 69.390625 
L 28.421875 72.90625 
L 38.28125 72.90625 
L 38.28125 8.296875 
L 54.390625 8.296875 
L 54.390625 0 
L 12.40625 0 
z
" id="DejaVuSans-49"/>
      </defs>
      <g style="fill:#ffffff;" transform="translate(820.424202 456.678437)scale(0.1 -0.1)">
       <use xlink:href="#DejaVuSans-49"/>
       <use x="63.623047" xlink:href="#DejaVuSans-46"/>
       <use x="95.410156" xlink:href="#DejaVuSans-48"/>
      </g>
     </g>
    </g>
   </g>
   <g id="matplotlib.axis_2">
    <g id="ytick_1">
     <g id="line2d_13">
      <path clip-path="url(#p626f456e60)" d="M 30.103125 442.08 
L 922.903125 442.08 
" style="fill:none;stroke:#ffffff;stroke-linecap:square;stroke-width:0.8;"/>
     </g>
     <g id="line2d_14">
      <defs>
       <path d="M 0 0 
L -3.5 0 
" id="mf11a5e17bd" style="stroke:#ffffff;stroke-width:0.8;"/>
      </defs>
      <g>
       <use style="fill:#ffffff;stroke:#ffffff;stroke-width:0.8;" x="30.103125" xlink:href="#mf11a5e17bd" y="442.08"/>
      </g>
     </g>
     <g id="text_7">
      <!-- 0.0 -->
      <g style="fill:#ffffff;" transform="translate(7.2 445.879219)scale(0.1 -0.1)">
       <use xlink:href="#DejaVuSans-48"/>
       <use x="63.623047" xlink:href="#DejaVuSans-46"/>
       <use x="95.410156" xlink:href="#DejaVuSans-48"/>
      </g>
     </g>
    </g>
    <g id="ytick_2">
     <g id="line2d_15">
      <path clip-path="url(#p626f456e60)" d="M 30.103125 370.666805 
L 922.903125 370.666805 
" style="fill:none;stroke:#ffffff;stroke-linecap:square;stroke-width:0.8;"/>
     </g>
     <g id="line2d_16">
      <g>
       <use style="fill:#ffffff;stroke:#ffffff;stroke-width:0.8;" x="30.103125" xlink:href="#mf11a5e17bd" y="370.666805"/>
      </g>
     </g>
     <g id="text_8">
      <!-- 0.5 -->
      <defs>
       <path d="M 10.796875 72.90625 
L 49.515625 72.90625 
L 49.515625 64.59375 
L 19.828125 64.59375 
L 19.828125 46.734375 
Q 21.96875 47.46875 24.109375 47.828125 
Q 26.265625 48.1875 28.421875 48.1875 
Q 40.625 48.1875 47.75 41.5 
Q 54.890625 34.8125 54.890625 23.390625 
Q 54.890625 11.625 47.5625 5.09375 
Q 40.234375 -1.421875 26.90625 -1.421875 
Q 22.3125 -1.421875 17.546875 -0.640625 
Q 12.796875 0.140625 7.71875 1.703125 
L 7.71875 11.625 
Q 12.109375 9.234375 16.796875 8.0625 
Q 21.484375 6.890625 26.703125 6.890625 
Q 35.15625 6.890625 40.078125 11.328125 
Q 45.015625 15.765625 45.015625 23.390625 
Q 45.015625 31 40.078125 35.4375 
Q 35.15625 39.890625 26.703125 39.890625 
Q 22.75 39.890625 18.8125 39.015625 
Q 14.890625 38.140625 10.796875 36.28125 
z
" id="DejaVuSans-53"/>
      </defs>
      <g style="fill:#ffffff;" transform="translate(7.2 374.466024)scale(0.1 -0.1)">
       <use xlink:href="#DejaVuSans-48"/>
       <use x="63.623047" xlink:href="#DejaVuSans-46"/>
       <use x="95.410156" xlink:href="#DejaVuSans-53"/>
      </g>
     </g>
    </g>
    <g id="ytick_3">
     <g id="line2d_17">
      <path clip-path="url(#p626f456e60)" d="M 30.103125 299.25361 
L 922.903125 299.25361 
" style="fill:none;stroke:#ffffff;stroke-linecap:square;stroke-width:0.8;"/>
     </g>
     <g id="line2d_18">
      <g>
       <use style="fill:#ffffff;stroke:#ffffff;stroke-width:0.8;" x="30.103125" xlink:href="#mf11a5e17bd" y="299.25361"/>
      </g>
     </g>
     <g id="text_9">
      <!-- 1.0 -->
      <g style="fill:#ffffff;" transform="translate(7.2 303.052829)scale(0.1 -0.1)">
       <use xlink:href="#DejaVuSans-49"/>
       <use x="63.623047" xlink:href="#DejaVuSans-46"/>
       <use x="95.410156" xlink:href="#DejaVuSans-48"/>
      </g>
     </g>
    </g>
    <g id="ytick_4">
     <g id="line2d_19">
      <path clip-path="url(#p626f456e60)" d="M 30.103125 227.840416 
L 922.903125 227.840416 
" style="fill:none;stroke:#ffffff;stroke-linecap:square;stroke-width:0.8;"/>
     </g>
     <g id="line2d_20">
      <g>
       <use style="fill:#ffffff;stroke:#ffffff;stroke-width:0.8;" x="30.103125" xlink:href="#mf11a5e17bd" y="227.840416"/>
      </g>
     </g>
     <g id="text_10">
      <!-- 1.5 -->
      <g style="fill:#ffffff;" transform="translate(7.2 231.639634)scale(0.1 -0.1)">
       <use xlink:href="#DejaVuSans-49"/>
       <use x="63.623047" xlink:href="#DejaVuSans-46"/>
       <use x="95.410156" xlink:href="#DejaVuSans-53"/>
      </g>
     </g>
    </g>
    <g id="ytick_5">
     <g id="line2d_21">
      <path clip-path="url(#p626f456e60)" d="M 30.103125 156.427221 
L 922.903125 156.427221 
" style="fill:none;stroke:#ffffff;stroke-linecap:square;stroke-width:0.8;"/>
     </g>
     <g id="line2d_22">
      <g>
       <use style="fill:#ffffff;stroke:#ffffff;stroke-width:0.8;" x="30.103125" xlink:href="#mf11a5e17bd" y="156.427221"/>
      </g>
     </g>
     <g id="text_11">
      <!-- 2.0 -->
      <g style="fill:#ffffff;" transform="translate(7.2 160.22644)scale(0.1 -0.1)">
       <use xlink:href="#DejaVuSans-50"/>
       <use x="63.623047" xlink:href="#DejaVuSans-46"/>
       <use x="95.410156" xlink:href="#DejaVuSans-48"/>
      </g>
     </g>
    </g>
    <g id="ytick_6">
     <g id="line2d_23">
      <path clip-path="url(#p626f456e60)" d="M 30.103125 85.014026 
L 922.903125 85.014026 
" style="fill:none;stroke:#ffffff;stroke-linecap:square;stroke-width:0.8;"/>
     </g>
     <g id="line2d_24">
      <g>
       <use style="fill:#ffffff;stroke:#ffffff;stroke-width:0.8;" x="30.103125" xlink:href="#mf11a5e17bd" y="85.014026"/>
      </g>
     </g>
     <g id="text_12">
      <!-- 2.5 -->
      <g style="fill:#ffffff;" transform="translate(7.2 88.813245)scale(0.1 -0.1)">
       <use xlink:href="#DejaVuSans-50"/>
       <use x="63.623047" xlink:href="#DejaVuSans-46"/>
       <use x="95.410156" xlink:href="#DejaVuSans-53"/>
      </g>
     </g>
    </g>
    <g id="ytick_7">
     <g id="line2d_25">
      <path clip-path="url(#p626f456e60)" d="M 30.103125 13.600831 
L 922.903125 13.600831 
" style="fill:none;stroke:#ffffff;stroke-linecap:square;stroke-width:0.8;"/>
     </g>
     <g id="line2d_26">
      <g>
       <use style="fill:#ffffff;stroke:#ffffff;stroke-width:0.8;" x="30.103125" xlink:href="#mf11a5e17bd" y="13.600831"/>
      </g>
     </g>
     <g id="text_13">
      <!-- 3.0 -->
      <defs>
       <path d="M 40.578125 39.3125 
Q 47.65625 37.796875 51.625 33 
Q 55.609375 28.21875 55.609375 21.1875 
Q 55.609375 10.40625 48.1875 4.484375 
Q 40.765625 -1.421875 27.09375 -1.421875 
Q 22.515625 -1.421875 17.65625 -0.515625 
Q 12.796875 0.390625 7.625 2.203125 
L 7.625 11.71875 
Q 11.71875 9.328125 16.59375 8.109375 
Q 21.484375 6.890625 26.8125 6.890625 
Q 36.078125 6.890625 40.9375 10.546875 
Q 45.796875 14.203125 45.796875 21.1875 
Q 45.796875 27.640625 41.28125 31.265625 
Q 36.765625 34.90625 28.71875 34.90625 
L 20.21875 34.90625 
L 20.21875 43.015625 
L 29.109375 43.015625 
Q 36.375 43.015625 40.234375 45.921875 
Q 44.09375 48.828125 44.09375 54.296875 
Q 44.09375 59.90625 40.109375 62.90625 
Q 36.140625 65.921875 28.71875 65.921875 
Q 24.65625 65.921875 20.015625 65.03125 
Q 15.375 64.15625 9.8125 62.3125 
L 9.8125 71.09375 
Q 15.4375 72.65625 20.34375 73.4375 
Q 25.25 74.21875 29.59375 74.21875 
Q 40.828125 74.21875 47.359375 69.109375 
Q 53.90625 64.015625 53.90625 55.328125 
Q 53.90625 49.265625 50.4375 45.09375 
Q 46.96875 40.921875 40.578125 39.3125 
z
" id="DejaVuSans-51"/>
      </defs>
      <g style="fill:#ffffff;" transform="translate(7.2 17.40005)scale(0.1 -0.1)">
       <use xlink:href="#DejaVuSans-51"/>
       <use x="63.623047" xlink:href="#DejaVuSans-46"/>
       <use x="95.410156" xlink:href="#DejaVuSans-48"/>
      </g>
     </g>
    </g>
   </g>
   <g id="line2d_27">
    <path clip-path="url(#p626f456e60)" d="M 70.684943 441.709031 
L 77.075781 441.044596 
L 83.466618 439.382287 
L 89.857456 435.723233 
L 96.248293 428.533302 
L 102.639131 415.872107 
L 109.029968 395.835871 
L 115.420806 367.265135 
L 121.811643 330.455355 
L 128.202481 287.490514 
L 134.593318 241.92748 
L 140.984156 197.872634 
L 147.374993 158.829217 
L 153.765831 126.830465 
L 160.156668 102.211768 
L 166.547506 84.021887 
L 172.938343 70.763619 
L 179.329181 61.069975 
L 185.720018 54.062697 
L 192.110856 49.364151 
L 198.501693 46.898695 
L 204.892531 46.666183 
L 211.283368 48.60951 
L 217.674206 52.584768 
L 224.065043 58.362793 
L 230.455881 65.610466 
L 236.846718 73.885111 
L 249.628393 91.698896 
L 262.410068 109.583422 
L 268.800906 118.395562 
L 275.191743 126.977405 
L 281.582581 135.135775 
L 287.973418 142.73604 
L 294.364256 149.810183 
L 307.145931 163.416162 
L 313.536769 170.694851 
L 319.927606 178.701314 
L 326.318444 187.507054 
L 332.709281 196.943478 
L 345.490956 216.39662 
L 351.881794 225.898049 
L 364.663469 244.257935 
L 371.054306 253.165385 
L 377.445144 261.774286 
L 383.835981 269.911036 
L 390.226819 277.445806 
L 396.617656 284.359586 
L 403.008494 290.743696 
L 409.399331 296.755291 
L 428.571844 314.053286 
L 441.353519 325.454319 
L 447.744356 330.935588 
L 454.135194 336.150436 
L 460.526031 341.045347 
L 466.916869 345.603448 
L 473.307706 349.844574 
L 479.698544 353.832733 
L 498.871056 365.506532 
L 511.652731 373.901463 
L 518.043569 378.14421 
L 524.434406 382.235198 
L 530.825244 386.057996 
L 537.216081 389.540021 
L 543.606919 392.664414 
L 549.997756 395.485057 
L 569.170269 403.512416 
L 588.342781 412.180628 
L 594.733619 414.796579 
L 601.124456 417.124228 
L 607.515294 419.151204 
L 613.906131 420.889545 
L 620.296969 422.362894 
L 626.687806 423.608735 
L 633.078644 424.676934 
L 645.860319 426.475892 
L 665.032832 428.962969 
L 677.814507 430.89155 
L 696.987019 433.864929 
L 709.768694 435.472125 
L 716.159532 436.094197 
L 722.550369 436.574236 
L 735.332044 437.154534 
L 754.504557 437.793492 
L 780.067907 438.927723 
L 786.458744 439.025953 
L 792.849582 438.959541 
L 799.240419 438.696607 
L 818.412932 437.240865 
L 824.803769 437.066777 
L 831.194607 437.323257 
L 837.585444 438.003862 
L 856.757957 440.779834 
L 863.148794 441.377983 
L 869.539632 441.738371 
L 875.930469 441.908921 
L 882.321307 441.91857 
L 882.321307 441.91857 
" style="fill:none;stroke:#8dd3c7;stroke-linecap:square;stroke-width:1.5;"/>
   </g>
   <g id="patch_53">
    <path d="M 30.103125 442.08 
L 30.103125 7.2 
" style="fill:none;stroke:#ffffff;stroke-linecap:square;stroke-linejoin:miter;stroke-width:0.8;"/>
   </g>
   <g id="patch_54">
    <path d="M 922.903125 442.08 
L 922.903125 7.2 
" style="fill:none;stroke:#ffffff;stroke-linecap:square;stroke-linejoin:miter;stroke-width:0.8;"/>
   </g>
   <g id="patch_55">
    <path d="M 30.103125 442.08 
L 922.903125 442.08 
" style="fill:none;stroke:#ffffff;stroke-linecap:square;stroke-linejoin:miter;stroke-width:0.8;"/>
   </g>
   <g id="patch_56">
    <path d="M 30.103125 7.2 
L 922.903125 7.2 
" style="fill:none;stroke:#ffffff;stroke-linecap:square;stroke-linejoin:miter;stroke-width:0.8;"/>
   </g>
  </g>
 </g>
 <defs>
  <clipPath id="p626f456e60">
   <rect height="434.88" width="892.8" x="30.103125" y="7.2"/>
  </clipPath>
 </defs>
</svg>
