<?xml version="1.0" encoding="utf-8" standalone="no"?>
<!DOCTYPE svg PUBLIC "-//W3C//DTD SVG 1.1//EN"
  "http://www.w3.org/Graphics/SVG/1.1/DTD/svg11.dtd">
<!-- Created with matplotlib (https://matplotlib.org/) -->
<svg height="465.958125pt" version="1.1" viewBox="0 0 926.925 465.958125" width="926.925pt" xmlns="http://www.w3.org/2000/svg" xmlns:xlink="http://www.w3.org/1999/xlink">
 <defs>
  <style type="text/css">
*{stroke-linecap:butt;stroke-linejoin:round;}
  </style>
 </defs>
 <g id="figure_1">
  <g id="patch_1">
   <path d="M 0 465.958125 
L 926.925 465.958125 
L 926.925 0 
L 0 0 
z
"/>
  </g>
  <g id="axes_1">
   <g id="patch_2">
    <path d="M 26.925 442.08 
L 919.725 442.08 
L 919.725 7.2 
L 26.925 7.2 
z
"/>
   </g>
   <g id="patch_3">
    <path clip-path="url(#p489f138d99)" d="M 72.114781 442.08 
L 88.16319 442.08 
L 88.16319 27.908571 
L 72.114781 27.908571 
z
" style="fill:#8dd3c7;opacity:0.4;"/>
   </g>
   <g id="patch_4">
    <path clip-path="url(#p489f138d99)" d="M 88.16319 442.08 
L 104.211598 442.08 
L 104.211598 405.58417 
L 88.16319 405.58417 
z
" style="fill:#8dd3c7;opacity:0.4;"/>
   </g>
   <g id="patch_5">
    <path clip-path="url(#p489f138d99)" d="M 104.211598 442.08 
L 120.260007 442.08 
L 120.260007 431.987403 
L 104.211598 431.987403 
z
" style="fill:#8dd3c7;opacity:0.4;"/>
   </g>
   <g id="patch_6">
    <path clip-path="url(#p489f138d99)" d="M 120.260007 442.08 
L 136.308416 442.08 
L 136.308416 435.736975 
L 120.260007 435.736975 
z
" style="fill:#8dd3c7;opacity:0.4;"/>
   </g>
   <g id="patch_7">
    <path clip-path="url(#p489f138d99)" d="M 136.308416 442.08 
L 152.356825 442.08 
L 152.356825 435.455757 
L 136.308416 435.455757 
z
" style="fill:#8dd3c7;opacity:0.4;"/>
   </g>
   <g id="patch_8">
    <path clip-path="url(#p489f138d99)" d="M 152.356825 442.08 
L 168.405234 442.08 
L 168.405234 431.362475 
L 152.356825 431.362475 
z
" style="fill:#8dd3c7;opacity:0.4;"/>
   </g>
   <g id="patch_9">
    <path clip-path="url(#p489f138d99)" d="M 168.405234 442.08 
L 184.453642 442.08 
L 184.453642 433.67471 
L 168.405234 433.67471 
z
" style="fill:#8dd3c7;opacity:0.4;"/>
   </g>
   <g id="patch_10">
    <path clip-path="url(#p489f138d99)" d="M 184.453642 442.08 
L 200.502051 442.08 
L 200.502051 438.674139 
L 184.453642 438.674139 
z
" style="fill:#8dd3c7;opacity:0.4;"/>
   </g>
   <g id="patch_11">
    <path clip-path="url(#p489f138d99)" d="M 200.502051 442.08 
L 216.55046 442.08 
L 216.55046 440.955129 
L 200.502051 440.955129 
z
" style="fill:#8dd3c7;opacity:0.4;"/>
   </g>
   <g id="patch_12">
    <path clip-path="url(#p489f138d99)" d="M 216.55046 442.08 
L 232.598869 442.08 
L 232.598869 441.705043 
L 216.55046 441.705043 
z
" style="fill:#8dd3c7;opacity:0.4;"/>
   </g>
   <g id="patch_13">
    <path clip-path="url(#p489f138d99)" d="M 232.598869 442.08 
L 248.647277 442.08 
L 248.647277 442.048754 
L 232.598869 442.048754 
z
" style="fill:#8dd3c7;opacity:0.4;"/>
   </g>
   <g id="patch_14">
    <path clip-path="url(#p489f138d99)" d="M 248.647277 442.08 
L 264.695686 442.08 
L 264.695686 442.048754 
L 248.647277 442.048754 
z
" style="fill:#8dd3c7;opacity:0.4;"/>
   </g>
   <g id="patch_15">
    <path clip-path="url(#p489f138d99)" d="M 264.695686 442.08 
L 280.744095 442.08 
L 280.744095 442.08 
L 264.695686 442.08 
z
" style="fill:#8dd3c7;opacity:0.4;"/>
   </g>
   <g id="patch_16">
    <path clip-path="url(#p489f138d99)" d="M 280.744095 442.08 
L 296.792504 442.08 
L 296.792504 442.08 
L 280.744095 442.08 
z
" style="fill:#8dd3c7;opacity:0.4;"/>
   </g>
   <g id="patch_17">
    <path clip-path="url(#p489f138d99)" d="M 296.792504 442.08 
L 312.840912 442.08 
L 312.840912 442.08 
L 296.792504 442.08 
z
" style="fill:#8dd3c7;opacity:0.4;"/>
   </g>
   <g id="patch_18">
    <path clip-path="url(#p489f138d99)" d="M 312.840912 442.08 
L 328.889321 442.08 
L 328.889321 442.08 
L 312.840912 442.08 
z
" style="fill:#8dd3c7;opacity:0.4;"/>
   </g>
   <g id="patch_19">
    <path clip-path="url(#p489f138d99)" d="M 328.889321 442.08 
L 344.93773 442.08 
L 344.93773 442.08 
L 328.889321 442.08 
z
" style="fill:#8dd3c7;opacity:0.4;"/>
   </g>
   <g id="patch_20">
    <path clip-path="url(#p489f138d99)" d="M 344.93773 442.08 
L 360.986139 442.08 
L 360.986139 442.08 
L 344.93773 442.08 
z
" style="fill:#8dd3c7;opacity:0.4;"/>
   </g>
   <g id="patch_21">
    <path clip-path="url(#p489f138d99)" d="M 360.986139 442.08 
L 377.034547 442.08 
L 377.034547 442.08 
L 360.986139 442.08 
z
" style="fill:#8dd3c7;opacity:0.4;"/>
   </g>
   <g id="patch_22">
    <path clip-path="url(#p489f138d99)" d="M 377.034547 442.08 
L 393.082956 442.08 
L 393.082956 442.08 
L 377.034547 442.08 
z
" style="fill:#8dd3c7;opacity:0.4;"/>
   </g>
   <g id="patch_23">
    <path clip-path="url(#p489f138d99)" d="M 393.082956 442.08 
L 409.131365 442.08 
L 409.131365 442.017507 
L 393.082956 442.017507 
z
" style="fill:#8dd3c7;opacity:0.4;"/>
   </g>
   <g id="patch_24">
    <path clip-path="url(#p489f138d99)" d="M 409.131365 442.08 
L 425.179774 442.08 
L 425.179774 442.08 
L 409.131365 442.08 
z
" style="fill:#8dd3c7;opacity:0.4;"/>
   </g>
   <g id="patch_25">
    <path clip-path="url(#p489f138d99)" d="M 425.179774 442.08 
L 441.228182 442.08 
L 441.228182 442.048754 
L 425.179774 442.048754 
z
" style="fill:#8dd3c7;opacity:0.4;"/>
   </g>
   <g id="patch_26">
    <path clip-path="url(#p489f138d99)" d="M 441.228182 442.08 
L 457.276591 442.08 
L 457.276591 441.955014 
L 441.228182 441.955014 
z
" style="fill:#8dd3c7;opacity:0.4;"/>
   </g>
   <g id="patch_27">
    <path clip-path="url(#p489f138d99)" d="M 457.276591 442.08 
L 473.325 442.08 
L 473.325 442.048754 
L 457.276591 442.048754 
z
" style="fill:#8dd3c7;opacity:0.4;"/>
   </g>
   <g id="patch_28">
    <path clip-path="url(#p489f138d99)" d="M 473.325 442.08 
L 489.373409 442.08 
L 489.373409 441.923768 
L 473.325 441.923768 
z
" style="fill:#8dd3c7;opacity:0.4;"/>
   </g>
   <g id="patch_29">
    <path clip-path="url(#p489f138d99)" d="M 489.373409 442.08 
L 505.421818 442.08 
L 505.421818 441.892521 
L 489.373409 441.892521 
z
" style="fill:#8dd3c7;opacity:0.4;"/>
   </g>
   <g id="patch_30">
    <path clip-path="url(#p489f138d99)" d="M 505.421818 442.08 
L 521.470226 442.08 
L 521.470226 441.673796 
L 505.421818 441.673796 
z
" style="fill:#8dd3c7;opacity:0.4;"/>
   </g>
   <g id="patch_31">
    <path clip-path="url(#p489f138d99)" d="M 521.470226 442.08 
L 537.518635 442.08 
L 537.518635 441.611304 
L 521.470226 441.611304 
z
" style="fill:#8dd3c7;opacity:0.4;"/>
   </g>
   <g id="patch_32">
    <path clip-path="url(#p489f138d99)" d="M 537.518635 442.08 
L 553.567044 442.08 
L 553.567044 441.2051 
L 537.518635 441.2051 
z
" style="fill:#8dd3c7;opacity:0.4;"/>
   </g>
   <g id="patch_33">
    <path clip-path="url(#p489f138d99)" d="M 553.567044 442.08 
L 569.615453 442.08 
L 569.615453 440.986375 
L 553.567044 440.986375 
z
" style="fill:#8dd3c7;opacity:0.4;"/>
   </g>
   <g id="patch_34">
    <path clip-path="url(#p489f138d99)" d="M 569.615453 442.08 
L 585.663861 442.08 
L 585.663861 440.517679 
L 569.615453 440.517679 
z
" style="fill:#8dd3c7;opacity:0.4;"/>
   </g>
   <g id="patch_35">
    <path clip-path="url(#p489f138d99)" d="M 585.663861 442.08 
L 601.71227 442.08 
L 601.71227 439.486546 
L 585.663861 439.486546 
z
" style="fill:#8dd3c7;opacity:0.4;"/>
   </g>
   <g id="patch_36">
    <path clip-path="url(#p489f138d99)" d="M 601.71227 442.08 
L 617.760679 442.08 
L 617.760679 438.799125 
L 601.71227 438.799125 
z
" style="fill:#8dd3c7;opacity:0.4;"/>
   </g>
   <g id="patch_37">
    <path clip-path="url(#p489f138d99)" d="M 617.760679 442.08 
L 633.809088 442.08 
L 633.809088 438.299182 
L 617.760679 438.299182 
z
" style="fill:#8dd3c7;opacity:0.4;"/>
   </g>
   <g id="patch_38">
    <path clip-path="url(#p489f138d99)" d="M 633.809088 442.08 
L 649.857496 442.08 
L 649.857496 439.486546 
L 633.809088 439.486546 
z
" style="fill:#8dd3c7;opacity:0.4;"/>
   </g>
   <g id="patch_39">
    <path clip-path="url(#p489f138d99)" d="M 649.857496 442.08 
L 665.905905 442.08 
L 665.905905 441.64255 
L 649.857496 441.64255 
z
" style="fill:#8dd3c7;opacity:0.4;"/>
   </g>
   <g id="patch_40">
    <path clip-path="url(#p489f138d99)" d="M 665.905905 442.08 
L 681.954314 442.08 
L 681.954314 441.923768 
L 665.905905 441.923768 
z
" style="fill:#8dd3c7;opacity:0.4;"/>
   </g>
   <g id="patch_41">
    <path clip-path="url(#p489f138d99)" d="M 681.954314 442.08 
L 698.002723 442.08 
L 698.002723 441.861275 
L 681.954314 441.861275 
z
" style="fill:#8dd3c7;opacity:0.4;"/>
   </g>
   <g id="patch_42">
    <path clip-path="url(#p489f138d99)" d="M 698.002723 442.08 
L 714.051131 442.08 
L 714.051131 440.736404 
L 698.002723 440.736404 
z
" style="fill:#8dd3c7;opacity:0.4;"/>
   </g>
   <g id="patch_43">
    <path clip-path="url(#p489f138d99)" d="M 714.051131 442.08 
L 730.09954 442.08 
L 730.09954 437.736746 
L 714.051131 437.736746 
z
" style="fill:#8dd3c7;opacity:0.4;"/>
   </g>
   <g id="patch_44">
    <path clip-path="url(#p489f138d99)" d="M 730.09954 442.08 
L 746.147949 442.08 
L 746.147949 438.080457 
L 730.09954 438.080457 
z
" style="fill:#8dd3c7;opacity:0.4;"/>
   </g>
   <g id="patch_45">
    <path clip-path="url(#p489f138d99)" d="M 746.147949 442.08 
L 762.196358 442.08 
L 762.196358 439.486546 
L 746.147949 439.486546 
z
" style="fill:#8dd3c7;opacity:0.4;"/>
   </g>
   <g id="patch_46">
    <path clip-path="url(#p489f138d99)" d="M 762.196358 442.08 
L 778.244766 442.08 
L 778.244766 440.298953 
L 762.196358 440.298953 
z
" style="fill:#8dd3c7;opacity:0.4;"/>
   </g>
   <g id="patch_47">
    <path clip-path="url(#p489f138d99)" d="M 778.244766 442.08 
L 794.293175 442.08 
L 794.293175 440.486432 
L 778.244766 440.486432 
z
" style="fill:#8dd3c7;opacity:0.4;"/>
   </g>
   <g id="patch_48">
    <path clip-path="url(#p489f138d99)" d="M 794.293175 442.08 
L 810.341584 442.08 
L 810.341584 441.267593 
L 794.293175 441.267593 
z
" style="fill:#8dd3c7;opacity:0.4;"/>
   </g>
   <g id="patch_49">
    <path clip-path="url(#p489f138d99)" d="M 810.341584 442.08 
L 826.389993 442.08 
L 826.389993 441.517564 
L 810.341584 441.517564 
z
" style="fill:#8dd3c7;opacity:0.4;"/>
   </g>
   <g id="patch_50">
    <path clip-path="url(#p489f138d99)" d="M 826.389993 442.08 
L 842.438402 442.08 
L 842.438402 441.830029 
L 826.389993 441.830029 
z
" style="fill:#8dd3c7;opacity:0.4;"/>
   </g>
   <g id="patch_51">
    <path clip-path="url(#p489f138d99)" d="M 842.438402 442.08 
L 858.48681 442.08 
L 858.48681 441.923768 
L 842.438402 441.923768 
z
" style="fill:#8dd3c7;opacity:0.4;"/>
   </g>
   <g id="patch_52">
    <path clip-path="url(#p489f138d99)" d="M 858.48681 442.08 
L 874.535219 442.08 
L 874.535219 442.017507 
L 858.48681 442.017507 
z
" style="fill:#8dd3c7;opacity:0.4;"/>
   </g>
   <g id="matplotlib.axis_1">
    <g id="xtick_1">
     <g id="line2d_1">
      <path clip-path="url(#p489f138d99)" d="M 72.114781 442.08 
L 72.114781 7.2 
" style="fill:none;stroke:#ffffff;stroke-linecap:square;stroke-width:0.8;"/>
     </g>
     <g id="line2d_2">
      <defs>
       <path d="M 0 0 
L 0 3.5 
" id="m7e6b24bba4" style="stroke:#ffffff;stroke-width:0.8;"/>
      </defs>
      <g>
       <use style="fill:#ffffff;stroke:#ffffff;stroke-width:0.8;" x="72.114781" xlink:href="#m7e6b24bba4" y="442.08"/>
      </g>
     </g>
     <g id="text_1">
      <!-- 0.0 -->
      <defs>
       <path d="M 31.78125 66.40625 
Q 24.171875 66.40625 20.328125 58.90625 
Q 16.5 51.421875 16.5 36.375 
Q 16.5 21.390625 20.328125 13.890625 
Q 24.171875 6.390625 31.78125 6.390625 
Q 39.453125 6.390625 43.28125 13.890625 
Q 47.125 21.390625 47.125 36.375 
Q 47.125 51.421875 43.28125 58.90625 
Q 39.453125 66.40625 31.78125 66.40625 
z
M 31.78125 74.21875 
Q 44.046875 74.21875 50.515625 64.515625 
Q 56.984375 54.828125 56.984375 36.375 
Q 56.984375 17.96875 50.515625 8.265625 
Q 44.046875 -1.421875 31.78125 -1.421875 
Q 19.53125 -1.421875 13.0625 8.265625 
Q 6.59375 17.96875 6.59375 36.375 
Q 6.59375 54.828125 13.0625 64.515625 
Q 19.53125 74.21875 31.78125 74.21875 
z
" id="DejaVuSans-48"/>
       <path d="M 10.6875 12.40625 
L 21 12.40625 
L 21 0 
L 10.6875 0 
z
" id="DejaVuSans-46"/>
      </defs>
      <g style="fill:#ffffff;" transform="translate(64.163218 456.678437)scale(0.1 -0.1)">
       <use xlink:href="#DejaVuSans-48"/>
       <use x="63.623047" xlink:href="#DejaVuSans-46"/>
       <use x="95.410156" xlink:href="#DejaVuSans-48"/>
      </g>
     </g>
    </g>
    <g id="xtick_2">
     <g id="line2d_3">
      <path clip-path="url(#p489f138d99)" d="M 246.318587 442.08 
L 246.318587 7.2 
" style="fill:none;stroke:#ffffff;stroke-linecap:square;stroke-width:0.8;"/>
     </g>
     <g id="line2d_4">
      <g>
       <use style="fill:#ffffff;stroke:#ffffff;stroke-width:0.8;" x="246.318587" xlink:href="#m7e6b24bba4" y="442.08"/>
      </g>
     </g>
     <g id="text_2">
      <!-- 0.2 -->
      <defs>
       <path d="M 19.1875 8.296875 
L 53.609375 8.296875 
L 53.609375 0 
L 7.328125 0 
L 7.328125 8.296875 
Q 12.9375 14.109375 22.625 23.890625 
Q 32.328125 33.6875 34.8125 36.53125 
Q 39.546875 41.84375 41.421875 45.53125 
Q 43.3125 49.21875 43.3125 52.78125 
Q 43.3125 58.59375 39.234375 62.25 
Q 35.15625 65.921875 28.609375 65.921875 
Q 23.96875 65.921875 18.8125 64.3125 
Q 13.671875 62.703125 7.8125 59.421875 
L 7.8125 69.390625 
Q 13.765625 71.78125 18.9375 73 
Q 24.125 74.21875 28.421875 74.21875 
Q 39.75 74.21875 46.484375 68.546875 
Q 53.21875 62.890625 53.21875 53.421875 
Q 53.21875 48.921875 51.53125 44.890625 
Q 49.859375 40.875 45.40625 35.40625 
Q 44.1875 33.984375 37.640625 27.21875 
Q 31.109375 20.453125 19.1875 8.296875 
z
" id="DejaVuSans-50"/>
      </defs>
      <g style="fill:#ffffff;" transform="translate(238.367025 456.678437)scale(0.1 -0.1)">
       <use xlink:href="#DejaVuSans-48"/>
       <use x="63.623047" xlink:href="#DejaVuSans-46"/>
       <use x="95.410156" xlink:href="#DejaVuSans-50"/>
      </g>
     </g>
    </g>
    <g id="xtick_3">
     <g id="line2d_5">
      <path clip-path="url(#p489f138d99)" d="M 420.522393 442.08 
L 420.522393 7.2 
" style="fill:none;stroke:#ffffff;stroke-linecap:square;stroke-width:0.8;"/>
     </g>
     <g id="line2d_6">
      <g>
       <use style="fill:#ffffff;stroke:#ffffff;stroke-width:0.8;" x="420.522393" xlink:href="#m7e6b24bba4" y="442.08"/>
      </g>
     </g>
     <g id="text_3">
      <!-- 0.4 -->
      <defs>
       <path d="M 37.796875 64.3125 
L 12.890625 25.390625 
L 37.796875 25.390625 
z
M 35.203125 72.90625 
L 47.609375 72.90625 
L 47.609375 25.390625 
L 58.015625 25.390625 
L 58.015625 17.1875 
L 47.609375 17.1875 
L 47.609375 0 
L 37.796875 0 
L 37.796875 17.1875 
L 4.890625 17.1875 
L 4.890625 26.703125 
z
" id="DejaVuSans-52"/>
      </defs>
      <g style="fill:#ffffff;" transform="translate(412.570831 456.678437)scale(0.1 -0.1)">
       <use xlink:href="#DejaVuSans-48"/>
       <use x="63.623047" xlink:href="#DejaVuSans-46"/>
       <use x="95.410156" xlink:href="#DejaVuSans-52"/>
      </g>
     </g>
    </g>
    <g id="xtick_4">
     <g id="line2d_7">
      <path clip-path="url(#p489f138d99)" d="M 594.7262 442.08 
L 594.7262 7.2 
" style="fill:none;stroke:#ffffff;stroke-linecap:square;stroke-width:0.8;"/>
     </g>
     <g id="line2d_8">
      <g>
       <use style="fill:#ffffff;stroke:#ffffff;stroke-width:0.8;" x="594.7262" xlink:href="#m7e6b24bba4" y="442.08"/>
      </g>
     </g>
     <g id="text_4">
      <!-- 0.6 -->
      <defs>
       <path d="M 33.015625 40.375 
Q 26.375 40.375 22.484375 35.828125 
Q 18.609375 31.296875 18.609375 23.390625 
Q 18.609375 15.53125 22.484375 10.953125 
Q 26.375 6.390625 33.015625 6.390625 
Q 39.65625 6.390625 43.53125 10.953125 
Q 47.40625 15.53125 47.40625 23.390625 
Q 47.40625 31.296875 43.53125 35.828125 
Q 39.65625 40.375 33.015625 40.375 
z
M 52.59375 71.296875 
L 52.59375 62.3125 
Q 48.875 64.0625 45.09375 64.984375 
Q 41.3125 65.921875 37.59375 65.921875 
Q 27.828125 65.921875 22.671875 59.328125 
Q 17.53125 52.734375 16.796875 39.40625 
Q 19.671875 43.65625 24.015625 45.921875 
Q 28.375 48.1875 33.59375 48.1875 
Q 44.578125 48.1875 50.953125 41.515625 
Q 57.328125 34.859375 57.328125 23.390625 
Q 57.328125 12.15625 50.6875 5.359375 
Q 44.046875 -1.421875 33.015625 -1.421875 
Q 20.359375 -1.421875 13.671875 8.265625 
Q 6.984375 17.96875 6.984375 36.375 
Q 6.984375 53.65625 15.1875 63.9375 
Q 23.390625 74.21875 37.203125 74.21875 
Q 40.921875 74.21875 44.703125 73.484375 
Q 48.484375 72.75 52.59375 71.296875 
z
" id="DejaVuSans-54"/>
      </defs>
      <g style="fill:#ffffff;" transform="translate(586.774637 456.678437)scale(0.1 -0.1)">
       <use xlink:href="#DejaVuSans-48"/>
       <use x="63.623047" xlink:href="#DejaVuSans-46"/>
       <use x="95.410156" xlink:href="#DejaVuSans-54"/>
      </g>
     </g>
    </g>
    <g id="xtick_5">
     <g id="line2d_9">
      <path clip-path="url(#p489f138d99)" d="M 768.930006 442.08 
L 768.930006 7.2 
" style="fill:none;stroke:#ffffff;stroke-linecap:square;stroke-width:0.8;"/>
     </g>
     <g id="line2d_10">
      <g>
       <use style="fill:#ffffff;stroke:#ffffff;stroke-width:0.8;" x="768.930006" xlink:href="#m7e6b24bba4" y="442.08"/>
      </g>
     </g>
     <g id="text_5">
      <!-- 0.8 -->
      <defs>
       <path d="M 31.78125 34.625 
Q 24.75 34.625 20.71875 30.859375 
Q 16.703125 27.09375 16.703125 20.515625 
Q 16.703125 13.921875 20.71875 10.15625 
Q 24.75 6.390625 31.78125 6.390625 
Q 38.8125 6.390625 42.859375 10.171875 
Q 46.921875 13.96875 46.921875 20.515625 
Q 46.921875 27.09375 42.890625 30.859375 
Q 38.875 34.625 31.78125 34.625 
z
M 21.921875 38.8125 
Q 15.578125 40.375 12.03125 44.71875 
Q 8.5 49.078125 8.5 55.328125 
Q 8.5 64.0625 14.71875 69.140625 
Q 20.953125 74.21875 31.78125 74.21875 
Q 42.671875 74.21875 48.875 69.140625 
Q 55.078125 64.0625 55.078125 55.328125 
Q 55.078125 49.078125 51.53125 44.71875 
Q 48 40.375 41.703125 38.8125 
Q 48.828125 37.15625 52.796875 32.3125 
Q 56.78125 27.484375 56.78125 20.515625 
Q 56.78125 9.90625 50.3125 4.234375 
Q 43.84375 -1.421875 31.78125 -1.421875 
Q 19.734375 -1.421875 13.25 4.234375 
Q 6.78125 9.90625 6.78125 20.515625 
Q 6.78125 27.484375 10.78125 32.3125 
Q 14.796875 37.15625 21.921875 38.8125 
z
M 18.3125 54.390625 
Q 18.3125 48.734375 21.84375 45.5625 
Q 25.390625 42.390625 31.78125 42.390625 
Q 38.140625 42.390625 41.71875 45.5625 
Q 45.3125 48.734375 45.3125 54.390625 
Q 45.3125 60.0625 41.71875 63.234375 
Q 38.140625 66.40625 31.78125 66.40625 
Q 25.390625 66.40625 21.84375 63.234375 
Q 18.3125 60.0625 18.3125 54.390625 
z
" id="DejaVuSans-56"/>
      </defs>
      <g style="fill:#ffffff;" transform="translate(760.978443 456.678437)scale(0.1 -0.1)">
       <use xlink:href="#DejaVuSans-48"/>
       <use x="63.623047" xlink:href="#DejaVuSans-46"/>
       <use x="95.410156" xlink:href="#DejaVuSans-56"/>
      </g>
     </g>
    </g>
   </g>
   <g id="matplotlib.axis_2">
    <g id="ytick_1">
     <g id="line2d_11">
      <path clip-path="url(#p489f138d99)" d="M 26.925 442.08 
L 919.725 442.08 
" style="fill:none;stroke:#ffffff;stroke-linecap:square;stroke-width:0.8;"/>
     </g>
     <g id="line2d_12">
      <defs>
       <path d="M 0 0 
L -3.5 0 
" id="m94c5160a36" style="stroke:#ffffff;stroke-width:0.8;"/>
      </defs>
      <g>
       <use style="fill:#ffffff;stroke:#ffffff;stroke-width:0.8;" x="26.925" xlink:href="#m94c5160a36" y="442.08"/>
      </g>
     </g>
     <g id="text_6">
      <!-- 0 -->
      <g style="fill:#ffffff;" transform="translate(13.5625 445.879219)scale(0.1 -0.1)">
       <use xlink:href="#DejaVuSans-48"/>
      </g>
     </g>
    </g>
    <g id="ytick_2">
     <g id="line2d_13">
      <path clip-path="url(#p489f138d99)" d="M 26.925 392.943042 
L 919.725 392.943042 
" style="fill:none;stroke:#ffffff;stroke-linecap:square;stroke-width:0.8;"/>
     </g>
     <g id="line2d_14">
      <g>
       <use style="fill:#ffffff;stroke:#ffffff;stroke-width:0.8;" x="26.925" xlink:href="#m94c5160a36" y="392.943042"/>
      </g>
     </g>
     <g id="text_7">
      <!-- 5 -->
      <defs>
       <path d="M 10.796875 72.90625 
L 49.515625 72.90625 
L 49.515625 64.59375 
L 19.828125 64.59375 
L 19.828125 46.734375 
Q 21.96875 47.46875 24.109375 47.828125 
Q 26.265625 48.1875 28.421875 48.1875 
Q 40.625 48.1875 47.75 41.5 
Q 54.890625 34.8125 54.890625 23.390625 
Q 54.890625 11.625 47.5625 5.09375 
Q 40.234375 -1.421875 26.90625 -1.421875 
Q 22.3125 -1.421875 17.546875 -0.640625 
Q 12.796875 0.140625 7.71875 1.703125 
L 7.71875 11.625 
Q 12.109375 9.234375 16.796875 8.0625 
Q 21.484375 6.890625 26.703125 6.890625 
Q 35.15625 6.890625 40.078125 11.328125 
Q 45.015625 15.765625 45.015625 23.390625 
Q 45.015625 31 40.078125 35.4375 
Q 35.15625 39.890625 26.703125 39.890625 
Q 22.75 39.890625 18.8125 39.015625 
Q 14.890625 38.140625 10.796875 36.28125 
z
" id="DejaVuSans-53"/>
      </defs>
      <g style="fill:#ffffff;" transform="translate(13.5625 396.742261)scale(0.1 -0.1)">
       <use xlink:href="#DejaVuSans-53"/>
      </g>
     </g>
    </g>
    <g id="ytick_3">
     <g id="line2d_15">
      <path clip-path="url(#p489f138d99)" d="M 26.925 343.806085 
L 919.725 343.806085 
" style="fill:none;stroke:#ffffff;stroke-linecap:square;stroke-width:0.8;"/>
     </g>
     <g id="line2d_16">
      <g>
       <use style="fill:#ffffff;stroke:#ffffff;stroke-width:0.8;" x="26.925" xlink:href="#m94c5160a36" y="343.806085"/>
      </g>
     </g>
     <g id="text_8">
      <!-- 10 -->
      <defs>
       <path d="M 12.40625 8.296875 
L 28.515625 8.296875 
L 28.515625 63.921875 
L 10.984375 60.40625 
L 10.984375 69.390625 
L 28.421875 72.90625 
L 38.28125 72.90625 
L 38.28125 8.296875 
L 54.390625 8.296875 
L 54.390625 0 
L 12.40625 0 
z
" id="DejaVuSans-49"/>
      </defs>
      <g style="fill:#ffffff;" transform="translate(7.2 347.605304)scale(0.1 -0.1)">
       <use xlink:href="#DejaVuSans-49"/>
       <use x="63.623047" xlink:href="#DejaVuSans-48"/>
      </g>
     </g>
    </g>
    <g id="ytick_4">
     <g id="line2d_17">
      <path clip-path="url(#p489f138d99)" d="M 26.925 294.669127 
L 919.725 294.669127 
" style="fill:none;stroke:#ffffff;stroke-linecap:square;stroke-width:0.8;"/>
     </g>
     <g id="line2d_18">
      <g>
       <use style="fill:#ffffff;stroke:#ffffff;stroke-width:0.8;" x="26.925" xlink:href="#m94c5160a36" y="294.669127"/>
      </g>
     </g>
     <g id="text_9">
      <!-- 15 -->
      <g style="fill:#ffffff;" transform="translate(7.2 298.468346)scale(0.1 -0.1)">
       <use xlink:href="#DejaVuSans-49"/>
       <use x="63.623047" xlink:href="#DejaVuSans-53"/>
      </g>
     </g>
    </g>
    <g id="ytick_5">
     <g id="line2d_19">
      <path clip-path="url(#p489f138d99)" d="M 26.925 245.53217 
L 919.725 245.53217 
" style="fill:none;stroke:#ffffff;stroke-linecap:square;stroke-width:0.8;"/>
     </g>
     <g id="line2d_20">
      <g>
       <use style="fill:#ffffff;stroke:#ffffff;stroke-width:0.8;" x="26.925" xlink:href="#m94c5160a36" y="245.53217"/>
      </g>
     </g>
     <g id="text_10">
      <!-- 20 -->
      <g style="fill:#ffffff;" transform="translate(7.2 249.331388)scale(0.1 -0.1)">
       <use xlink:href="#DejaVuSans-50"/>
       <use x="63.623047" xlink:href="#DejaVuSans-48"/>
      </g>
     </g>
    </g>
    <g id="ytick_6">
     <g id="line2d_21">
      <path clip-path="url(#p489f138d99)" d="M 26.925 196.395212 
L 919.725 196.395212 
" style="fill:none;stroke:#ffffff;stroke-linecap:square;stroke-width:0.8;"/>
     </g>
     <g id="line2d_22">
      <g>
       <use style="fill:#ffffff;stroke:#ffffff;stroke-width:0.8;" x="26.925" xlink:href="#m94c5160a36" y="196.395212"/>
      </g>
     </g>
     <g id="text_11">
      <!-- 25 -->
      <g style="fill:#ffffff;" transform="translate(7.2 200.194431)scale(0.1 -0.1)">
       <use xlink:href="#DejaVuSans-50"/>
       <use x="63.623047" xlink:href="#DejaVuSans-53"/>
      </g>
     </g>
    </g>
    <g id="ytick_7">
     <g id="line2d_23">
      <path clip-path="url(#p489f138d99)" d="M 26.925 147.258254 
L 919.725 147.258254 
" style="fill:none;stroke:#ffffff;stroke-linecap:square;stroke-width:0.8;"/>
     </g>
     <g id="line2d_24">
      <g>
       <use style="fill:#ffffff;stroke:#ffffff;stroke-width:0.8;" x="26.925" xlink:href="#m94c5160a36" y="147.258254"/>
      </g>
     </g>
     <g id="text_12">
      <!-- 30 -->
      <defs>
       <path d="M 40.578125 39.3125 
Q 47.65625 37.796875 51.625 33 
Q 55.609375 28.21875 55.609375 21.1875 
Q 55.609375 10.40625 48.1875 4.484375 
Q 40.765625 -1.421875 27.09375 -1.421875 
Q 22.515625 -1.421875 17.65625 -0.515625 
Q 12.796875 0.390625 7.625 2.203125 
L 7.625 11.71875 
Q 11.71875 9.328125 16.59375 8.109375 
Q 21.484375 6.890625 26.8125 6.890625 
Q 36.078125 6.890625 40.9375 10.546875 
Q 45.796875 14.203125 45.796875 21.1875 
Q 45.796875 27.640625 41.28125 31.265625 
Q 36.765625 34.90625 28.71875 34.90625 
L 20.21875 34.90625 
L 20.21875 43.015625 
L 29.109375 43.015625 
Q 36.375 43.015625 40.234375 45.921875 
Q 44.09375 48.828125 44.09375 54.296875 
Q 44.09375 59.90625 40.109375 62.90625 
Q 36.140625 65.921875 28.71875 65.921875 
Q 24.65625 65.921875 20.015625 65.03125 
Q 15.375 64.15625 9.8125 62.3125 
L 9.8125 71.09375 
Q 15.4375 72.65625 20.34375 73.4375 
Q 25.25 74.21875 29.59375 74.21875 
Q 40.828125 74.21875 47.359375 69.109375 
Q 53.90625 64.015625 53.90625 55.328125 
Q 53.90625 49.265625 50.4375 45.09375 
Q 46.96875 40.921875 40.578125 39.3125 
z
" id="DejaVuSans-51"/>
      </defs>
      <g style="fill:#ffffff;" transform="translate(7.2 151.057473)scale(0.1 -0.1)">
       <use xlink:href="#DejaVuSans-51"/>
       <use x="63.623047" xlink:href="#DejaVuSans-48"/>
      </g>
     </g>
    </g>
    <g id="ytick_8">
     <g id="line2d_25">
      <path clip-path="url(#p489f138d99)" d="M 26.925 98.121297 
L 919.725 98.121297 
" style="fill:none;stroke:#ffffff;stroke-linecap:square;stroke-width:0.8;"/>
     </g>
     <g id="line2d_26">
      <g>
       <use style="fill:#ffffff;stroke:#ffffff;stroke-width:0.8;" x="26.925" xlink:href="#m94c5160a36" y="98.121297"/>
      </g>
     </g>
     <g id="text_13">
      <!-- 35 -->
      <g style="fill:#ffffff;" transform="translate(7.2 101.920516)scale(0.1 -0.1)">
       <use xlink:href="#DejaVuSans-51"/>
       <use x="63.623047" xlink:href="#DejaVuSans-53"/>
      </g>
     </g>
    </g>
    <g id="ytick_9">
     <g id="line2d_27">
      <path clip-path="url(#p489f138d99)" d="M 26.925 48.984339 
L 919.725 48.984339 
" style="fill:none;stroke:#ffffff;stroke-linecap:square;stroke-width:0.8;"/>
     </g>
     <g id="line2d_28">
      <g>
       <use style="fill:#ffffff;stroke:#ffffff;stroke-width:0.8;" x="26.925" xlink:href="#m94c5160a36" y="48.984339"/>
      </g>
     </g>
     <g id="text_14">
      <!-- 40 -->
      <g style="fill:#ffffff;" transform="translate(7.2 52.783558)scale(0.1 -0.1)">
       <use xlink:href="#DejaVuSans-52"/>
       <use x="63.623047" xlink:href="#DejaVuSans-48"/>
      </g>
     </g>
    </g>
   </g>
   <g id="line2d_29">
    <path clip-path="url(#p489f138d99)" d="M 67.506818 442.08 
L 73.897656 441.109759 
L 80.288493 419.208426 
L 86.679331 350.035049 
L 93.070168 402.993083 
L 99.461006 414.507521 
L 105.851843 429.008498 
L 112.242681 431.588719 
L 118.633518 436.843482 
L 125.024356 435.16649 
L 131.415193 436.355642 
L 137.806031 434.443089 
L 144.196868 436.66416 
L 150.587706 433.879522 
L 156.978543 433.081276 
L 163.369381 430.19165 
L 169.760218 430.856069 
L 176.151056 434.322845 
L 182.541893 434.859719 
L 188.932731 438.810525 
L 195.323568 438.764877 
L 201.714406 440.193864 
L 208.105243 440.919831 
L 214.496081 441.446408 
L 227.277756 441.698506 
L 233.668593 442.043043 
L 265.622781 442.014328 
L 272.013618 442.08 
L 278.404456 442.021327 
L 284.795293 442.08 
L 297.576969 442.08 
L 316.749481 442.033203 
L 335.921994 442.08 
L 355.094506 442.042143 
L 374.267019 442.08 
L 406.221206 442.009203 
L 412.612044 442.08 
L 431.784556 441.945381 
L 438.175394 442.08 
L 450.957069 442.055734 
L 457.347906 441.756792 
L 463.738744 442.08 
L 470.129581 441.911248 
L 476.520419 442.08 
L 482.911256 441.808079 
L 489.302094 441.953918 
L 495.692931 441.846757 
L 508.474606 441.902947 
L 514.865444 441.614581 
L 521.256281 441.582486 
L 527.647119 441.399884 
L 534.037956 441.630904 
L 540.428794 441.300492 
L 546.819631 441.583238 
L 553.210469 440.784039 
L 559.601306 441.207537 
L 565.992144 440.572593 
L 572.382981 440.839043 
L 578.773819 440.263662 
L 591.555494 440.170689 
L 597.946331 438.702315 
L 604.337169 438.898603 
L 610.728006 438.67798 
L 623.509681 438.753772 
L 629.900519 437.890083 
L 636.291356 438.802853 
L 642.682194 439.276423 
L 649.073031 440.987151 
L 655.463869 441.318918 
L 661.854707 441.981564 
L 668.245544 441.956105 
L 674.636382 442.053441 
L 681.027219 441.743092 
L 687.418057 442.017466 
L 693.808894 441.690259 
L 700.199732 441.64071 
L 706.590569 440.310214 
L 712.981407 440.107671 
L 719.372244 437.914335 
L 725.763082 437.016801 
L 732.153919 437.585748 
L 738.544757 438.511527 
L 744.935594 438.408558 
L 751.326432 438.930266 
L 764.108107 440.470494 
L 770.498944 439.539062 
L 776.889782 441.1769 
L 783.280619 440.315589 
L 789.671457 440.464969 
L 796.062294 441.056218 
L 808.843969 441.413036 
L 815.234807 441.202219 
L 821.625644 441.92867 
L 828.016482 441.574184 
L 834.407319 442.08 
L 840.798157 441.492944 
L 847.188994 442.08 
L 853.579832 441.42118 
L 859.970669 442.08 
L 866.361507 441.301305 
L 872.752344 442.08 
L 879.143182 440.876284 
L 879.143182 440.876284 
" style="fill:none;stroke:#8dd3c7;stroke-linecap:square;stroke-width:1.5;"/>
   </g>
   <g id="patch_53">
    <path d="M 26.925 442.08 
L 26.925 7.2 
" style="fill:none;stroke:#ffffff;stroke-linecap:square;stroke-linejoin:miter;stroke-width:0.8;"/>
   </g>
   <g id="patch_54">
    <path d="M 919.725 442.08 
L 919.725 7.2 
" style="fill:none;stroke:#ffffff;stroke-linecap:square;stroke-linejoin:miter;stroke-width:0.8;"/>
   </g>
   <g id="patch_55">
    <path d="M 26.925 442.08 
L 919.725 442.08 
" style="fill:none;stroke:#ffffff;stroke-linecap:square;stroke-linejoin:miter;stroke-width:0.8;"/>
   </g>
   <g id="patch_56">
    <path d="M 26.925 7.2 
L 919.725 7.2 
" style="fill:none;stroke:#ffffff;stroke-linecap:square;stroke-linejoin:miter;stroke-width:0.8;"/>
   </g>
  </g>
 </g>
 <defs>
  <clipPath id="p489f138d99">
   <rect height="434.88" width="892.8" x="26.925" y="7.2"/>
  </clipPath>
 </defs>
</svg>
